<?xml version="1.0" encoding="utf-8"?>
<!-- Generator: Adobe Illustrator 25.0.0, SVG Export Plug-In . SVG Version: 6.00 Build 0)  -->
<svg version="1.1" id="Layer_1" xmlns="http://www.w3.org/2000/svg" xmlns:xlink="http://www.w3.org/1999/xlink" x="0px" y="0px"
	 viewBox="0 0 1920 1080" style="enable-background:new 0 0 1920 1080;" xml:space="preserve">
<style type="text/css">
	.st0{fill:#010101;}
	.st1{fill:#FF7700;}
	.st2{fill:#944EFF;}
	.st3{fill:#FFFFFF;}
	.st4{fill:url(#SVGID_1_);}
	.st5{fill:url(#SVGID_2_);}
	.st6{fill:#11FF88;}
	.st7{fill:none;}
</style>
<rect x="1220.4" y="5107.2" class="st0" width="512" height="512"/>
<g>
	<g>
		<g>
			<rect x="3129.2" y="2641.4" class="st0" width="1920" height="1080"/>
		</g>
	</g>
	<g>
		<polygon class="st1" points="4131,3237.3 4089.2,3279.2 3991.4,3181.4 4089.2,3083.6 4131,3125.4 4289.2,3125.4 4168.3,3004.5 
			4168.3,3004.5 4089.2,2925.4 4010.1,3004.5 3912.3,3102.3 3833.2,3181.4 3912.3,3260.5 3912.3,3260.5 4089.2,3437.4 
			4168.3,3358.3 4266.1,3260.5 4289.2,3237.3 		"/>
		<polygon class="st2" points="4063.3,3146.8 4028.7,3181.4 4063.3,3215.9 4310.6,3215.9 4345.2,3181.4 4310.6,3146.8 		"/>
	</g>
	<g>
		<g>
			<g>
				<path class="st2" d="M4185.2,3589.9c-0.4,0-0.8-0.1-1.1-0.4l-16-16c-0.6-0.6-0.6-1.5,0-2.1l16-16c0.6-0.6,1.5-0.6,2.1,0l16,16
					c0.6,0.6,0.6,1.5,0,2.1l-16,16C4185.9,3589.8,4185.5,3589.9,4185.2,3589.9z M4171.3,3572.5l13.9,13.9l13.9-13.9l-13.9-13.9
					L4171.3,3572.5z"/>
			</g>
			<g>
				<path class="st2" d="M4121.2,3589.9c-0.4,0-0.8-0.1-1.1-0.4l-16-16c-0.6-0.6-0.6-1.5,0-2.1l16-16c0.6-0.6,1.5-0.6,2.1,0l16,16
					c0.6,0.6,0.6,1.5,0,2.1l-16,16C4121.9,3589.8,4121.5,3589.9,4121.2,3589.9z M4107.3,3572.5l13.9,13.9l13.9-13.9l-13.9-13.9
					L4107.3,3572.5z"/>
			</g>
			<g>
				<path class="st2" d="M3993.2,3589.9c-0.4,0-0.8-0.1-1.1-0.4l-16-16c-0.6-0.6-0.6-1.5,0-2.1l16-16c0.6-0.6,1.5-0.6,2.1,0l16,16
					c0.6,0.6,0.6,1.5,0,2.1l-16,16C3993.9,3589.8,3993.5,3589.9,3993.2,3589.9z M3979.3,3572.5l13.9,13.9l13.9-13.9l-13.9-13.9
					L3979.3,3572.5z"/>
			</g>
		</g>
		<g>
			<path class="st1" d="M4185.2,3590c-0.4,0-0.8-0.1-1.1-0.4l-16-16c-0.6-0.6-0.6-1.5,0-2.1l16-16c0.6-0.6,1.5-0.6,2.1,0
				c0.6,0.6,0.6,1.5,0,2.1l-14.9,14.9l14.9,14.9c0.6,0.6,0.6,1.5,0,2.1C4185.9,3589.8,4185.6,3590,4185.2,3590z"/>
		</g>
		<g>
			<path class="st1" d="M4121.2,3590c-0.4,0-0.8-0.1-1.1-0.4c-0.6-0.6-0.6-1.5,0-2.1l14.9-14.9l-14.9-14.9c-0.6-0.6-0.6-1.5,0-2.1
				c0.6-0.6,1.5-0.6,2.1,0l16,16c0.6,0.6,0.6,1.5,0,2.1l-16,16C4121.9,3589.8,4121.6,3590,4121.2,3590z"/>
		</g>
		<g>
			<path class="st1" d="M4057.2,3589.9c-0.4,0-0.8-0.1-1.1-0.4l-16-16c-0.6-0.6-0.6-1.5,0-2.1l16-16c0.6-0.6,1.5-0.6,2.1,0l16,16
				c0.6,0.6,0.6,1.5,0,2.1l-16,16C4057.9,3589.8,4057.5,3589.9,4057.2,3589.9z M4043.3,3572.5l13.9,13.9l13.9-13.9l-13.9-13.9
				L4043.3,3572.5z"/>
		</g>
		<g>
			<path class="st1" d="M3993.2,3590c-0.4,0-0.8-0.1-1.1-0.4l-16-16c-0.6-0.6-0.6-1.5,0-2.1l16-16c0.6-0.6,1.5-0.6,2.1,0
				s0.6,1.5,0,2.1l-14.9,14.9l14.9,14.9c0.6,0.6,0.6,1.5,0,2.1C3993.9,3589.8,3993.6,3590,3993.2,3590z"/>
		</g>
		<g>
			
				<rect x="4183.2" y="3570.5" transform="matrix(0.7071 -0.7071 0.7071 0.7071 -1300.3046 4005.7505)" class="st1" width="4" height="4"/>
		</g>
	</g>
</g>
<g>
	<g>
		<rect x="3129.2" y="1444" class="st0" width="1920" height="1080"/>
	</g>
	<g>
		<g>
			<path class="st2" d="M3188.9,1550c-0.2,0-0.4-0.1-0.5-0.2c-0.2-0.2-0.3-0.5-0.2-0.8l10.7-26.3c0.1-0.2,0.2-0.3,0.4-0.4
				c0.2-0.1,0.4-0.1,0.6,0l26.4,10.7c0.3,0.1,0.5,0.4,0.5,0.7s-0.2,0.6-0.5,0.7l-37.1,15.6C3189.1,1550,3189,1550,3188.9,1550z
				 M3200.1,1523.9l-9.8,23.9l33.7-14.2L3200.1,1523.9z"/>
		</g>
		<g>
			<polygon class="st1" points="3161.2,1500.2 3179.4,1499 3178.2,1480.7 			"/>
		</g>
		<g>
			<polygon class="st1" points="4929.5,2480 4955.3,2468.2 4946.5,2448.9 			"/>
		</g>
		<g>
			<path class="st2" d="M4989.3,2487.3c-0.1,0-0.2,0-0.3-0.1c-0.3-0.1-0.5-0.4-0.5-0.7l-1.2-28.4c0-0.2,0.1-0.4,0.2-0.5
				c0.1-0.2,0.3-0.2,0.5-0.2l28.4-1.2c0.3,0,0.6,0.2,0.7,0.4c0.1,0.3,0.1,0.6-0.1,0.8l-27.2,29.6
				C4989.7,2487.2,4989.5,2487.3,4989.3,2487.3z M4988.8,2458.8l1.1,25.8l24.7-26.9L4988.8,2458.8z"/>
		</g>
		<g>
			<polygon class="st1" points="4932.9,2379.4 4929.1,2401.6 4951.3,2405.5 			"/>
		</g>
		<g>
			<polygon class="st2" points="4991.9,2421.3 4982.2,2427.2 4988.1,2436.9 			"/>
		</g>
	</g>
</g>
<g>
	<g>
		<rect x="-1088.5" y="1444" class="st0" width="1920" height="1080"/>
	</g>
</g>
<g>
	<path class="st3" d="M-99.1,1360.8c-6.7,8.9-17.4,14.7-29.5,14.7c-20.3,0-36.8-16.5-36.8-36.8s16.5-36.8,36.8-36.8
		c12.1,0,22.7,5.8,29.5,14.7h25.2c-8.7-21.6-29.9-36.8-54.6-36.8c-1.1,0-2.2,0-3.3,0.1c-0.3,0-0.7,0.1-1,0.1
		c-0.7,0.1-1.5,0.1-2.2,0.2c-0.4,0-0.8,0.1-1.2,0.1c-0.7,0.1-1.4,0.2-2.1,0.3c-0.4,0.1-0.8,0.1-1.2,0.2c-0.7,0.1-1.4,0.3-2.1,0.4
		c-0.4,0.1-0.7,0.2-1.1,0.3c-0.7,0.2-1.5,0.4-2.2,0.6c-0.3,0.1-0.6,0.2-0.9,0.3c-0.9,0.3-1.8,0.6-2.7,0.9c-0.1,0-0.2,0.1-0.3,0.1
		c-1,0.4-2,0.8-3,1.2h-0.1c-0.9,0.4-1.8,0.8-2.8,1.3c-0.1,0-0.1,0.1-0.2,0.1l0,0c-3.7,1.8-7.2,4-10.4,6.6l0,0
		c-0.1,0.1-0.3,0.2-0.4,0.3c-0.5,0.4-1.1,0.9-1.6,1.3c-0.3,0.2-0.5,0.4-0.8,0.7c-0.6,0.5-1.1,1-1.7,1.6c-0.2,0.2-0.4,0.4-0.6,0.5
		c-1.5,1.4-2.8,3-4.2,4.6c-0.2,0.2-0.4,0.5-0.5,0.7c-0.4,0.6-0.9,1.1-1.3,1.7c-0.2,0.3-0.4,0.6-0.6,0.9c-0.4,0.5-0.8,1.1-1.1,1.6
		c-0.2,0.3-0.4,0.6-0.6,1c-0.3,0.6-0.7,1.1-1,1.7c-0.2,0.3-0.4,0.7-0.6,1c-0.3,0.6-0.7,1.2-1,1.8c-0.2,0.3-0.3,0.6-0.5,0.9
		c-0.4,0.7-0.7,1.5-1,2.2c-0.1,0.2-0.2,0.4-0.3,0.6c-0.4,1-0.8,1.9-1.2,2.9c-0.1,0.2-0.2,0.5-0.2,0.7c-0.3,0.8-0.5,1.5-0.8,2.3
		c-0.1,0.4-0.2,0.7-0.3,1.1c-0.2,0.7-0.4,1.3-0.5,2c-0.1,0.4-0.2,0.8-0.3,1.2c-0.1,0.6-0.3,1.3-0.4,1.9l0,0c0,0.1,0,0.2-0.1,0.3
		c-0.1,0.3-0.1,0.7-0.2,1c-0.1,0.4-0.1,0.8-0.2,1.2c-0.1,0.3-0.1,0.6-0.1,1c-0.1,0.4-0.1,0.7-0.1,1.1c0,0.3-0.1,0.5-0.1,0.8
		c-0.1,0.5-0.1,1-0.1,1.5c0,0.3-0.1,0.7-0.1,1c0,0.1,0,0.3,0,0.4c-0.1,1-0.1,1.9-0.1,2.9c0,32.5,26.4,58.9,58.9,58.9
		c24.7,0,45.9-15.2,54.6-36.8L-99.1,1360.8L-99.1,1360.8z"/>
	<path class="st3" d="M-70.1,1331.4h-4.2h-2.8h-18.4h-39.7c-4.1,0-7.4,3.3-7.4,7.4c0,4.1,3.3,7.4,7.4,7.4h39.7h18.4h2.8h4.2
		c0.3-2.4,0.5-4.9,0.5-7.4S-69.8,1333.8-70.1,1331.4z"/>
</g>
<g>
	<g>
		<path class="st3" d="M18.6,1375.6c-21.2,0-38.2-17.9-36.7-39.4c1.3-18.2,15.9-32.9,34.1-34.1c13.1-0.9,24.9,5.1,32.1,14.6h25.2
			c-9-22.2-31.2-37.7-56.9-36.8c-30.4,1.1-55.2,25.7-56.6,56.1c-1.6,33.8,25.4,61.7,58.8,61.7c24.7,0,45.9-15.2,54.6-36.8H48
			C41.3,1369.8,30.6,1375.6,18.6,1375.6z"/>
	</g>
	<path class="st3" d="M77,1331.4h-6.9H51.7H18.5H12H5.1c-0.3,2.4-0.5,4.9-0.5,7.4s0.2,4.9,0.5,7.4H12h6.5h33.2h18.4H77
		c0.3-2.4,0.5-4.9,0.5-7.4S77.3,1333.8,77,1331.4z"/>
</g>
<g>
	<path class="st3" d="M-246.1,1360.8c-6.7,8.9-17.4,14.7-29.5,14.7c-20.3,0-36.8-16.5-36.8-36.8s16.5-36.8,36.8-36.8
		c12.1,0,22.7,5.8,29.5,14.7h25.2c-8.7-21.6-29.9-36.8-54.6-36.8c-1.1,0-2.2,0-3.3,0.1c-0.3,0-0.7,0.1-1,0.1
		c-0.7,0.1-1.5,0.1-2.2,0.2c-0.4,0-0.8,0.1-1.2,0.1c-0.7,0.1-1.4,0.2-2.1,0.3c-0.4,0.1-0.8,0.1-1.2,0.2c-0.7,0.1-1.4,0.3-2,0.4
		c-0.4,0.1-0.7,0.2-1.1,0.3c-0.7,0.2-1.4,0.4-2.2,0.6c-0.3,0.1-0.6,0.2-0.9,0.3c-0.9,0.3-1.8,0.6-2.7,0.9c-0.1,0-0.2,0.1-0.3,0.1
		c-1,0.4-2,0.8-3,1.2h-0.1c-0.9,0.4-1.8,0.8-2.8,1.3c-0.1,0-0.1,0.1-0.2,0.1l0,0c-3.7,1.8-7.2,4-10.4,6.6l0,0
		c-0.1,0.1-0.3,0.2-0.4,0.3c-0.5,0.4-1.1,0.9-1.6,1.3c-0.3,0.2-0.5,0.4-0.8,0.7c-0.6,0.5-1.1,1-1.7,1.6c-0.2,0.2-0.4,0.4-0.6,0.5
		c-1.5,1.4-2.8,3-4.2,4.6c-0.2,0.2-0.4,0.5-0.5,0.7c-0.4,0.6-0.9,1.1-1.3,1.7c-0.2,0.3-0.4,0.6-0.6,0.9c-0.4,0.5-0.8,1.1-1.1,1.6
		c-0.2,0.3-0.4,0.6-0.6,1c-0.3,0.6-0.7,1.1-1,1.7c-0.2,0.3-0.4,0.7-0.6,1c-0.3,0.6-0.7,1.2-1,1.8c-0.2,0.3-0.3,0.6-0.5,0.9
		c-0.4,0.7-0.7,1.5-1,2.2c-0.1,0.2-0.2,0.4-0.3,0.6c-0.4,1-0.8,1.9-1.2,2.9c-0.1,0.2-0.2,0.5-0.2,0.7c-0.3,0.8-0.5,1.5-0.8,2.3
		c-0.1,0.4-0.2,0.7-0.3,1.1c-0.2,0.7-0.4,1.3-0.5,2c-0.1,0.4-0.2,0.8-0.3,1.2c-0.1,0.6-0.3,1.3-0.4,1.9l0,0c0,0.1,0,0.2-0.1,0.3
		c-0.1,0.3-0.1,0.7-0.2,1c-0.1,0.4-0.1,0.8-0.2,1.2c-0.1,0.3-0.1,0.6-0.1,1c-0.1,0.4-0.1,0.7-0.1,1.1c0,0.3-0.1,0.5-0.1,0.8
		c-0.1,0.5-0.1,1-0.1,1.5c0,0.3-0.1,0.7-0.1,1c0,0.1,0,0.3,0,0.4c-0.1,1-0.1,1.9-0.1,2.9c0,32.5,26.4,58.9,58.9,58.9
		c24.7,0,45.9-15.2,54.6-36.8L-246.1,1360.8L-246.1,1360.8z"/>
	<path class="st3" d="M-224,1331.4h-58c-4.1,0-7.4,3.3-7.4,7.4c0,4.1,3.3,7.4,7.4,7.4h58c4.1,0,7.4-3.3,7.4-7.4
		S-220,1331.4-224,1331.4z"/>
</g>
<g>
	<g>
		<g>
			<path class="st2" d="M-1028.8,1550c-0.2,0-0.4-0.1-0.5-0.2c-0.2-0.2-0.3-0.5-0.2-0.8l10.7-26.3c0.1-0.2,0.2-0.3,0.4-0.4
				c0.2-0.1,0.4-0.1,0.6,0l26.3,10.7c0.3,0.1,0.5,0.4,0.5,0.7s-0.2,0.6-0.5,0.7l-37,15.6C-1028.6,1550-1028.7,1550-1028.8,1550z
				 M-1017.6,1523.9l-9.8,23.9l33.7-14.2L-1017.6,1523.9z"/>
		</g>
		<g>
			<polygon class="st2" points="-1056.5,1500.2 -1038.3,1499 -1039.5,1480.7 			"/>
		</g>
	</g>
	<g>
		<g>
			<g>
				<polygon class="st1" points="711.8,2480 737.6,2468.2 728.8,2448.9 				"/>
			</g>
			<g>
				<path class="st1" d="M771.6,2487.3c-0.1,0-0.2,0-0.3-0.1c-0.3-0.1-0.5-0.4-0.5-0.7l-1.2-28.4c0-0.2,0.1-0.4,0.2-0.5
					c0.1-0.2,0.3-0.2,0.5-0.2l28.4-1.2c0.3,0,0.6,0.2,0.7,0.4c0.1,0.3,0.1,0.6-0.1,0.8l-27.2,29.6
					C772,2487.2,771.8,2487.3,771.6,2487.3z M771.1,2458.8l1.1,25.8l24.7-26.9L771.1,2458.8z"/>
			</g>
			<g>
				<polygon class="st1" points="715.2,2379.4 711.4,2401.6 733.5,2405.5 				"/>
			</g>
			<g>
				<polygon class="st1" points="774.2,2421.3 764.5,2427.2 770.4,2436.9 				"/>
			</g>
		</g>
	</g>
</g>
<g>
	<g>
		<path class="st2" d="M4185.1,2392.5c-0.4,0-0.8-0.1-1.1-0.4l-16-16c-0.6-0.6-0.6-1.5,0-2.1l16-16c0.6-0.6,1.5-0.6,2.1,0l16,16
			c0.6,0.6,0.6,1.5,0,2.1l-16,16C4185.9,2392.4,4185.5,2392.5,4185.1,2392.5z M4171.3,2375l13.9,13.9l13.9-13.9l-13.9-13.9
			L4171.3,2375z"/>
	</g>
	<g>
		<path class="st1" d="M4185.2,2392.6c-0.4,0-0.8-0.1-1.1-0.4l-16-16c-0.6-0.6-0.6-1.5,0-2.1l16-16c0.6-0.6,1.5-0.6,2.1,0
			c0.6,0.6,0.6,1.5,0,2.1l-14.9,14.9l14.9,14.9c0.6,0.6,0.6,1.5,0,2.1C4185.9,2392.4,4185.5,2392.6,4185.2,2392.6z"/>
	</g>
	<g>
		<path class="st2" d="M4121.1,2392.5c-0.4,0-0.8-0.1-1.1-0.4l-16-16c-0.6-0.6-0.6-1.5,0-2.1l16-16c0.6-0.6,1.5-0.6,2.1,0l16,16
			c0.6,0.6,0.6,1.5,0,2.1l-16,16C4121.9,2392.4,4121.5,2392.5,4121.1,2392.5z M4107.3,2375l13.9,13.9l13.9-13.9l-13.9-13.9
			L4107.3,2375z"/>
	</g>
	<g>
		<path class="st1" d="M4121.2,2392.6c-0.4,0-0.8-0.1-1.1-0.4c-0.6-0.6-0.6-1.5,0-2.1l14.9-14.9l-14.9-14.9c-0.6-0.6-0.6-1.5,0-2.1
			s1.5-0.6,2.1,0l16,16c0.6,0.6,0.6,1.5,0,2.1l-16,16C4121.9,2392.4,4121.5,2392.6,4121.2,2392.6z"/>
	</g>
	<g>
		<path class="st1" d="M4057.1,2392.5c-0.4,0-0.8-0.1-1.1-0.4l-16-16c-0.6-0.6-0.6-1.5,0-2.1l16-16c0.6-0.6,1.5-0.6,2.1,0l16,16
			c0.6,0.6,0.6,1.5,0,2.1l-16,16C4057.9,2392.4,4057.5,2392.5,4057.1,2392.5z M4043.3,2375l13.9,13.9l13.9-13.9l-13.9-13.9
			L4043.3,2375z"/>
	</g>
	<g>
		<path class="st2" d="M3993.1,2392.5c-0.4,0-0.8-0.1-1.1-0.4l-16-16c-0.6-0.6-0.6-1.5,0-2.1l16-16c0.6-0.6,1.5-0.6,2.1,0l16,16
			c0.6,0.6,0.6,1.5,0,2.1l-16,16C3993.9,2392.4,3993.5,2392.5,3993.1,2392.5z M3979.3,2375l13.9,13.9l13.9-13.9l-13.9-13.9
			L3979.3,2375z"/>
	</g>
	<g>
		<path class="st1" d="M3993.2,2392.6c-0.4,0-0.8-0.1-1.1-0.4l-16-16c-0.6-0.6-0.6-1.5,0-2.1l16-16c0.6-0.6,1.5-0.6,2.1,0
			s0.6,1.5,0,2.1l-14.9,14.9l14.9,14.9c0.6,0.6,0.6,1.5,0,2.1C3993.9,2392.4,3993.5,2392.6,3993.2,2392.6z"/>
	</g>
	<g>
		
			<rect x="4183.2" y="2373.1" transform="matrix(0.7071 -0.7071 0.7071 0.7071 -453.6801 3655.0139)" class="st1" width="4" height="4"/>
	</g>
</g>
<g>
	<g>
		<path class="st1" d="M-128.5,1942.8c-49.1,0-88.9-39.8-88.9-88.9s39.8-88.9,88.9-88.9c29.1,0,54.9,14,71.2,35.6H3.5
			c-21.1-52.1-72.2-88.9-131.9-88.9c-78.6,0-142.3,63.7-142.3,142.3s63.7,142.3,142.3,142.3c59.7,0,110.8-36.8,131.9-88.9h-60.8
			C-73.6,1928.9-99.4,1942.8-128.5,1942.8z"/>
		<path class="st2" d="M13.7,1859.5c0.1-0.6,0.1-1.2,0.1-1.8v-3.9C13.8,1855.8,13.7,1857.7,13.7,1859.5z"/>
		<path class="st2" d="M13.7,1848.3c0.1,1.9,0.1,3.8,0.1,5.6v-3.9C13.8,1849.4,13.7,1848.9,13.7,1848.3z"/>
		<path class="st2" d="M-38,1853.9c0-4.8-0.2-9.6-0.7-14.3c-0.2-2-1.9-3.5-3.9-3.5h-101.6c-9.8,0-17.8,8-17.8,17.8l0,0
			c0,9.8,8,17.8,17.8,17.8h101.6c2,0,3.7-1.5,3.9-3.5C-38.2,1863.5-38,1858.7-38,1853.9z"/>
		<path class="st3" d="M13.7,1848.2c-0.2-4.1-0.5-8.1-1-12.1H-0.1h-48.2h-0.6c0.7,5.8,1.1,11.8,1.1,17.8s-0.4,12-1.1,17.8h0.6h48.2
			h12.8c0.5-4,0.8-8.1,1-12.1c0.1-1.9,0.1-3.8,0.1-5.6C13.8,1851.9,13.7,1850,13.7,1848.2z"/>
	</g>
	<g>
		<g>
			<path class="st2" d="M-553.8,2125.7c0-26.2,20.9-42.4,42.6-42.4c25,0,38.2,15.8,38.2,38.3c0,3.6-0.4,7.2-0.9,9.2h-58.7
				c1.8,14.3,12.3,22.5,27.3,22.5c7.9,0,14.7-2.2,21.5-5.8l7.4,11.8c-8.8,5.2-20,8.7-31.7,8.7
				C-533.8,2168-553.8,2152.3-553.8,2125.7z M-491.8,2118c0-12.4-6.3-20-19-20c-10.8,0-20.3,7-22.1,20H-491.8z"/>
			<path class="st3" d="M-456.8,2112.7c0-35.1,25.2-56,56.4-56c15.4,0,27.7,6.4,35.5,13.6l-11.7,12.3c-6.3-5.5-13.7-9.3-23.3-9.3
				c-20,0-34.4,14.8-34.4,38.9c0,24.5,13.3,39.3,33.9,39.3c10.9,0,19.3-4.4,26.3-11l11.7,12c-10,10.1-22.8,15.6-38.8,15.6
				C-432.3,2168-456.8,2148.2-456.8,2112.7z"/>
			<path class="st3" d="M-349.9,2125.7c0-26.9,20.9-42.4,44-42.4s44,15.5,44,42.4c0,26.7-20.9,42.2-44,42.2
				S-349.9,2152.5-349.9,2125.7z M-284.2,2125.7c0-16.2-8.1-26.9-21.7-26.9s-21.7,10.8-21.7,26.9s8.1,26.8,21.7,26.8
				S-284.2,2141.9-284.2,2125.7z"/>
			<path class="st3" d="M-240.4,2085.3h17.8l1.7,10.9h0.6c8.3-7,17.7-12.9,30.3-12.9c19.8,0,28.5,11.7,28.5,32v50.7h-21.7v-48.1
				c0-13.3-4.4-18.3-14.4-18.3c-8.1,0-13.5,3.5-21.1,10v56.4h-21.7L-240.4,2085.3L-240.4,2085.3z"/>
			<path class="st3" d="M-131.8,2138.8v-38.4H-145v-14.2l14.3-0.8l2.6-22h18v22h23.6v15h-23.6v38.4c0,9.5,4.2,14.2,13.1,14.2
				c3.2,0,6.9-0.9,9.6-1.8l3.7,13.9c-5.1,1.4-11.5,3-18.9,3C-123.9,2168-131.8,2156.2-131.8,2138.8z"/>
			<path class="st3" d="M-67.1,2085.3h17.8l1.7,14.4h0.6c6.6-10.5,16.4-16.3,26.3-16.3c4.7,0,7.7,0.5,10.5,1.6l-3.8,16.4
				c-3.2-0.8-5.7-1.3-9.5-1.3c-7.4,0-16.3,4.4-21.8,16.7v49.2H-67L-67.1,2085.3L-67.1,2085.3z"/>
			<path class="st3" d="M3.2,2085.3h21.7v80.7H3.2V2085.3z"/>
			<path class="st3" d="M41,2085.3h22l14.7,41.8c2.6,8,5.3,16.2,7.8,24.3h0.8c2.6-8.1,5.3-16.3,7.8-24.3l14.7-41.8h20.9L98.3,2166
				H73.2L41,2085.3z"/>
			<path class="st3" d="M138.5,2125.7c0-26.2,20.9-42.4,42.6-42.4c25,0,38.2,15.8,38.2,38.3c0,3.6-0.5,7.2-0.9,9.2h-58.7
				c1.8,14.3,12.3,22.5,27.3,22.5c7.9,0,14.7-2.2,21.5-5.8l7.4,11.8c-8.8,5.2-20,8.7-31.7,8.7C158.5,2168,138.5,2152.3,138.5,2125.7
				z M200.5,2118c0-12.4-6.3-20-19-20c-10.8,0-20.3,7-22.1,20H200.5z"/>
			<path class="st3" d="M240,2085.3h17.8l1.7,14.4h0.6c6.6-10.5,16.4-16.3,26.3-16.3c4.7,0,7.7,0.5,10.5,1.6l-3.8,16.4
				c-3.2-0.8-5.7-1.3-9.5-1.3c-7.4,0-16.3,4.4-21.8,16.7v49.2h-21.7L240,2085.3L240,2085.3z"/>
		</g>
		<circle class="st1" cx="14" cy="2063.3" r="11.9"/>
	</g>
</g>
<g>
	<g>
		<rect class="st0" width="1920" height="1080"/>
	</g>
</g>
<g>
	<g>
		<g>
			<path class="st2" d="M428.1,691.5c0-32.8,26.1-53,53.3-53c31.3,0,47.8,19.7,47.8,47.9c0,4.5-0.6,9-1.2,11.5h-73.4
				c2.3,17.9,15.4,28.1,34.1,28.1c9.9,0,18.4-2.7,26.8-7.3l9.2,14.7c-11,6.5-25,10.9-39.7,10.9C453.2,744.3,428.1,724.7,428.1,691.5
				z M505.7,681.8c0-15.5-7.9-25-23.7-25c-13.5,0-25.3,8.8-27.7,25H505.7z"/>
			<path class="st3" d="M549.4,675.1c0-43.9,31.5-70.1,70.5-70.1c19.3,0,34.7,8,44.4,17l-14.6,15.4c-7.9-6.9-17.1-11.7-29.2-11.7
				c-25,0-43,18.5-43,48.6c0,30.6,16.6,49.2,42.4,49.2c13.7,0,24.2-5.5,32.9-13.8l14.6,15c-12.5,12.7-28.5,19.5-48.5,19.5
				C580.1,744.3,549.4,719.6,549.4,675.1z"/>
			<path class="st3" d="M683.1,691.5c0-33.6,26.2-53,55-53s55,19.4,55,53c0,33.4-26.2,52.8-55,52.8
				C709.3,744.3,683.1,724.9,683.1,691.5z M765.2,691.5c0-20.2-10.2-33.7-27.1-33.7S711,671.3,711,691.5s10.2,33.5,27.1,33.5
				S765.2,711.7,765.2,691.5z"/>
			<path class="st3" d="M820,641h22.2l2.1,13.6h0.8c10.4-8.8,22.1-16.1,37.9-16.1c24.8,0,35.6,14.6,35.6,40.1v63.2h-27.1v-60.2
				c0-16.6-5.5-22.8-18-22.8c-10.2,0-16.9,4.3-26.4,12.6v70.5H820V641z"/>
			<path class="st3" d="M955.9,707.8v-48h-16.5V642l17.9-1.1l3.2-27.5H983v27.5h29.5v18.8H983v48c0,11.9,5.3,17.7,16.4,17.7
				c4,0,8.7-1.2,12.1-2.3l4.6,17.4c-6.3,1.8-14.4,3.7-23.6,3.7C965.7,744.3,955.9,729.6,955.9,707.8z"/>
			<path class="st3" d="M1036.8,641h22.2l2.1,18h0.8c8.2-13.1,20.5-20.5,32.9-20.5c5.9,0,9.6,0.7,13.1,2l-4.7,20.5
				c-4.1-1-7.1-1.6-11.9-1.6c-9.2,0-20.3,5.5-27.3,20.9v61.5h-27.1L1036.8,641L1036.8,641z"/>
			<path class="st3" d="M1121.5,609.9c0-8,7.2-13.4,16.8-13.4c9.6,0,16.8,5.4,16.8,13.4c0,7.8-7.2,13.4-16.8,13.4
				S1121.5,617.7,1121.5,609.9z M1124.6,641h27.1v100.9h-27.1V641z"/>
			<path class="st3" d="M1171.9,641h27.5l18.4,52.3c3.2,9.9,6.6,20.3,9.8,30.4h0.9c3.2-10.1,6.6-20.5,9.8-30.4l18.3-52.3h26.2
				l-39.3,100.9h-31.3L1171.9,641z"/>
			<path class="st3" d="M1293.8,691.5c0-32.8,26.1-53,53.3-53c31.3,0,47.8,19.7,47.8,47.9c0,4.5-0.6,9-1.2,11.5h-73.4
				c2.3,17.9,15.4,28.1,34.1,28.1c9.9,0,18.4-2.7,26.8-7.3l9.2,14.7c-11,6.5-25,10.9-39.6,10.9
				C1318.9,744.3,1293.8,724.7,1293.8,691.5z M1371.4,681.8c0-15.5-7.9-25-23.7-25c-13.5,0-25.3,8.8-27.7,25H1371.4z"/>
			<path class="st3" d="M1420.8,641h22.2l2.1,18h0.8c8.2-13.1,20.5-20.5,32.9-20.5c5.9,0,9.6,0.7,13.1,2l-4.7,20.5
				c-4-1-7.1-1.6-11.9-1.6c-9.2,0-20.3,5.5-27.3,20.9v61.5h-27.1L1420.8,641L1420.8,641z"/>
		</g>
		<g>
			<g>
				<path class="st1" d="M1138.3,595.5c-10.3,0-17.8,6.1-17.8,14.4s7.5,14.4,17.8,14.4s17.8-6.1,17.8-14.4
					C1156.1,601.6,1148.6,595.5,1138.3,595.5z"/>
			</g>
		</g>
	</g>
	<g>
		<g>
			
				<radialGradient id="SVGID_1_" cx="966.9867" cy="7824.9253" r="136.7367" gradientTransform="matrix(1 0 0 1 0 -7452.4785)" gradientUnits="userSpaceOnUse">
				<stop  offset="0.1778" style="stop-color:#FF9022"/>
				<stop  offset="0.4974" style="stop-color:#F17405"/>
				<stop  offset="0.8093" style="stop-color:#F17405"/>
				<stop  offset="1" style="stop-color:#FF0E00"/>
			</radialGradient>
			<path class="st4" d="M1002.1,477.8c-58.8,0-106.4-47.7-106.4-106.4c0-58.8,47.6-106.4,106.4-106.4s106.4,47.6,106.4,106.4
				c0-71.2-57.7-128.9-128.9-128.9c-71.2,0-129,57.7-129,128.9s57.7,129,129,129s128.9-57.7,128.9-129
				C1108.5,430.2,1060.9,477.8,1002.1,477.8z"/>
			<path class="st1" d="M1002.1,477.8c-58.8,0-106.4-47.7-106.4-106.4c0-58.8,47.6-106.4,106.4-106.4s106.4,47.6,106.4,106.4
				c0-71.2-57.7-128.9-128.9-128.9c-71.2,0-129,57.7-129,128.9s57.7,129,129,129s128.9-57.7,128.9-129
				C1108.5,430.2,1060.9,477.8,1002.1,477.8z"/>
			<path class="st2" d="M1108.5,371.4C1108.5,371.4,1108.5,371.3,1108.5,371.4c0-58.8-47.6-106.4-106.4-106.4
				c-58.1,0-105.2,46.5-106.4,104.3c1.1-45.3,38.3-81.7,83.9-81.7c46.3,0,83.9,37.6,83.9,83.9s-37.6,83.9-83.9,83.9
				c-45.6,0-82.7-36.4-83.9-81.7c1.1,57.8,48.4,104.3,106.4,104.3C1060.9,477.8,1108.5,430.2,1108.5,371.4z"/>
			<g>
				<g>
					
						<linearGradient id="SVGID_2_" gradientUnits="userSpaceOnUse" x1="914.95" y1="7952.7788" x2="914.95" y2="7694.7788" gradientTransform="matrix(1 0 0 1 0 -7452.4785)">
						<stop  offset="0" style="stop-color:#FF9022;stop-opacity:0"/>
						<stop  offset="0.2758" style="stop-color:#FF9022"/>
						<stop  offset="0.5129" style="stop-color:#FF9022"/>
						<stop  offset="0.817" style="stop-color:#FF9022"/>
						<stop  offset="1" style="stop-color:#FF9022;stop-opacity:0"/>
					</linearGradient>
					<path class="st5" d="M979.6,500.3c-16.9,0-33.8-3.3-49.4-9.7c-15.6-6.4-30-16-41.9-27.9s-21.6-26.2-28.1-41.9
						c-6.5-15.6-9.9-32.5-9.9-49.5c0-16.9,3.4-33.9,9.9-49.5s16.1-29.9,28.1-41.9c12-11.9,26.3-21.5,41.9-27.9s32.5-9.7,49.4-9.7
						c-16.9,2.1-33,6.6-47.6,14c-7.3,3.6-14.3,7.9-20.7,12.8c-1.6,1.2-3.1,2.6-4.7,3.8c-1.6,1.3-3.1,2.6-4.6,3.9l-4.4,4.1l-4.1,4.3
						l-3.9,4.5l-3.7,4.7l-3.5,4.8c-1.1,1.7-2.2,3.3-3.3,5c-4.2,6.7-7.8,13.8-10.6,21.1c-2.8,7.3-5.1,14.9-6.5,22.6
						c-1.5,7.7-2.2,15.5-2.2,23.4c0,7.8,0.7,15.7,2.2,23.4c1.4,7.7,3.6,15.3,6.5,22.6c2.8,7.3,6.4,14.4,10.6,21.1
						c1.1,1.7,2.2,3.3,3.3,5l3.5,4.8l3.7,4.7l3.9,4.5l4.1,4.3l4.4,4.1c1.5,1.3,3,2.6,4.6,3.9c1.6,1.2,3.1,2.5,4.7,3.8
						c6.4,4.9,13.4,9.2,20.7,12.8C946.5,493.8,962.7,498.3,979.6,500.3z"/>
					<path class="st2" d="M1071.9,371.4c0,6-0.7,12.1-1.8,18c-1.2,5.9-3.1,11.7-5.4,17.2c-4.8,11.1-11.9,21-20.6,29.3
						c-4.3,4.1-9.1,7.7-14.2,10.8c-5.1,3.1-10.4,5.7-15.9,7.8c-11.1,4.1-22.9,5.8-34.4,5.2c-11.6-0.5-22.9-3.4-33.2-8.2
						c-5.1-2.4-10.1-5.3-14.6-8.6c-4.6-3.3-8.7-7.1-12.6-11.1c-3.8-4.1-7.3-8.5-10.2-13.2c-3-4.7-5.4-9.7-7.5-14.8
						s-3.6-10.5-4.6-15.9s-1.6-10.9-1.5-16.4c0-5.5,0.5-11,1.5-16.4s2.5-10.8,4.6-15.9s4.5-10.1,7.5-14.8c3-4.7,6.4-9.1,10.2-13.2
						c3.9-4,8-7.8,12.6-11.1c4.6-3.3,9.4-6.2,14.6-8.6c10.3-4.8,21.6-7.7,33.2-8.2c11.5-0.5,23.3,1.2,34.4,5.2
						c5.5,2,10.9,4.6,15.9,7.8c5,3.1,9.9,6.7,14.2,10.8c8.6,8.2,15.8,18.2,20.6,29.3c2.4,5.5,4.2,11.3,5.4,17.2
						C1071.3,359.3,1071.9,365.3,1071.9,371.4z M1063.2,371.4c0-10.9-2.2-21.9-6.3-32c-4.2-10.1-10.4-19.4-18.1-27.1
						s-17-13.9-27.1-18.1s-21-6.3-32-6.3c-10.9,0-21.9,2.2-32,6.3c-10.1,4.2-19.4,10.4-27.1,18.1s-13.9,17-18.1,27.1s-6.4,21-6.4,32
						c0,10.9,2.1,21.9,6.4,32c4.2,10.1,10.4,19.4,18.1,27.1s17,13.9,27.1,18.1s21,6.3,32,6.3c10.9,0,21.9-2.2,32-6.3
						c10.1-4.2,19.4-10.4,27.1-18.1s13.9-17,18.1-27.1C1061,393.3,1063.2,382.3,1063.2,371.4z"/>
				</g>
				<g>
					<path class="st6" d="M895.7,371.4L895.7,371.4L895.7,371.4C895.7,371.3,895.7,371.4,895.7,371.4z"/>
				</g>
			</g>
		</g>
		<rect x="943.6" y="341" class="st0" width="186.8" height="60.7"/>
		<g>
			<path class="st2" d="M1108.1,371.3c0-5.7-4.6-10.2-10.3-10.2h-14.4h-21h-83.9c-5.7,0-10.3,4.6-10.3,10.3l0,0
				c0,5.7,4.6,10.3,10.3,10.3h83.9h21h14.4c5.7,0,10.3-4.6,10.3-10.2V371.3L1108.1,371.3z"/>
		</g>
		<path class="st2" d="M1108.1,371.1c0-5.7-4.6-10.2-10.3-10.2h-14.4h-21h-83.9c-5.7,0-10.3,4.6-10.3,10.3v0.4
			c0,5.7,4.6,10.3,10.3,10.3h83.9h21h14.4c5.7,0,10.3-4.6,10.3-10.2c0-0.1,0-0.2,0-0.3S1108.1,371.2,1108.1,371.1z"/>
	</g>
</g>
<text transform="matrix(1 0 0 1 904.7754 1406.5771)" class="st3" style="font-family:'BerlinSansFBDemi-Bold'; font-size:56.0733px;">1.618</text>
<text transform="matrix(1 0 0 1 758.4868 1191.3945)" class="st3" style="font-family:'BerlinSansFBDemi-Bold'; font-size:56.0733px;">GOLDEN RATIO</text>
<g>
	<g>
		<path class="st1" d="M988.8,993.4L988.8,993.4c-14.1,0-25.5-11.4-25.5-25.5l0,0c0-14.1,11.4-25.5,25.5-25.5l0,0
			c14.1,0,25.5,11.4,25.5,25.5l0,0C1014.3,982,1002.9,993.4,988.8,993.4z"/>
		<path class="st2" d="M931.3,993.4L931.3,993.4c-14.1,0-25.5-11.4-25.5-25.5l0,0c0-14.1,11.4-25.5,25.5-25.5l0,0
			c14.1,0,25.5,11.4,25.5,25.5l0,0C956.8,981.9,945.4,993.4,931.3,993.4z"/>
	</g>
</g>
<g>
	<g>
		<rect x="1088.5" y="1444" class="st0" width="1920" height="1080"/>
	</g>
</g>
<g>
	<g>
		<path class="st2" d="M1148.2,1550c-0.2,0-0.4-0.1-0.5-0.2c-0.2-0.2-0.3-0.5-0.2-0.8l10.7-26.3c0.1-0.2,0.2-0.3,0.4-0.4
			c0.2-0.1,0.4-0.1,0.6,0l26.4,10.7c0.3,0.1,0.5,0.4,0.5,0.7s-0.2,0.6-0.5,0.7l-37.1,15.6C1148.4,1550,1148.3,1550,1148.2,1550z
			 M1159.4,1523.9l-9.8,23.9l33.7-14.2L1159.4,1523.9z"/>
	</g>
	<g>
		<polygon class="st1" points="1120.5,1500.2 1138.7,1499 1137.5,1480.7 		"/>
	</g>
	<g>
		<polygon class="st1" points="2888.8,2480 2914.6,2468.2 2905.8,2448.9 		"/>
	</g>
	<g>
		<path class="st2" d="M2948.6,2487.3c-0.1,0-0.2,0-0.3-0.1c-0.3-0.1-0.5-0.4-0.5-0.7l-1.2-28.4c0-0.2,0.1-0.4,0.2-0.5
			c0.1-0.2,0.3-0.2,0.5-0.2l28.4-1.2c0.3,0,0.6,0.2,0.7,0.4c0.1,0.3,0.1,0.6-0.1,0.8l-27.2,29.6
			C2949,2487.2,2948.8,2487.3,2948.6,2487.3z M2948.1,2458.8l1.1,25.8l24.7-26.9L2948.1,2458.8z"/>
	</g>
	<g>
		<polygon class="st1" points="2892.2,2379.4 2888.4,2401.6 2910.6,2405.5 		"/>
	</g>
	<g>
		<polygon class="st2" points="2951.2,2421.3 2941.5,2427.2 2947.4,2436.9 		"/>
	</g>
</g>
<g>
	<polygon class="st1" points="2048.5,2144 1888.5,1984 2048.5,1824 2112.5,1888 2208.5,1888 2048.5,1728 1792.5,1984 2048.5,2240 
		2208.5,2080 2112.5,2080 	"/>
	<polygon class="st2" points="2304.5,1984 2270.6,1950.1 2270.6,1950.1 2270.6,1950.1 2022,1950.1 1988.1,1984 2022,2017.9 
		2022,2017.9 2022,2017.9 2270.6,2017.9 	"/>
</g>
<g>
	<g>
		<g>
			<path class="st2" d="M2144.5,2392.5c-0.4,0-0.8-0.1-1.1-0.4l-16-16c-0.6-0.6-0.6-1.5,0-2.1l16-16c0.6-0.6,1.5-0.6,2.1,0l16,16
				c0.6,0.6,0.6,1.5,0,2.1l-16,16C2145.3,2392.4,2144.9,2392.5,2144.5,2392.5z M2130.7,2375l13.9,13.9l13.9-13.9l-14-13.8
				L2130.7,2375z"/>
		</g>
		<g>
			<path class="st2" d="M2080.5,2392.5c-0.4,0-0.8-0.1-1.1-0.4l-16-16c-0.6-0.6-0.6-1.5,0-2.1l16-16c0.6-0.6,1.5-0.6,2.1,0l16,16
				c0.6,0.6,0.6,1.5,0,2.1l-16,16C2081.3,2392.4,2080.9,2392.5,2080.5,2392.5z M2066.7,2375l13.9,13.9l13.9-13.9l-14-13.8
				L2066.7,2375z"/>
		</g>
		<g>
			<path class="st2" d="M1952.5,2392.5c-0.4,0-0.8-0.1-1.1-0.4l-16-16c-0.6-0.6-0.6-1.5,0-2.1l16-16c0.6-0.6,1.5-0.6,2.1,0l16,16
				c0.6,0.6,0.6,1.5,0,2.1l-16,16C1953.3,2392.4,1952.9,2392.5,1952.5,2392.5z M1938.7,2375l13.9,13.9l13.9-13.9l-14-13.8
				L1938.7,2375z"/>
		</g>
	</g>
	<g>
		<path class="st1" d="M2144.5,2392.6c-0.4,0-0.8-0.1-1.1-0.4l-16-16c-0.6-0.6-0.6-1.5,0-2.1l16-16c0.6-0.6,1.5-0.6,2.1,0
			s0.6,1.5,0,2.1l-14.9,14.9l14.9,14.9c0.6,0.6,0.6,1.5,0,2.1C2145.3,2392.4,2144.9,2392.6,2144.5,2392.6z"/>
	</g>
	<g>
		<path class="st1" d="M2080.5,2392.6c-0.4,0-0.8-0.1-1.1-0.4c-0.6-0.6-0.6-1.5,0-2.1l14.9-14.9l-14.9-14.9c-0.6-0.6-0.6-1.5,0-2.1
			c0.6-0.6,1.5-0.6,2.1,0l16,16c0.6,0.6,0.6,1.5,0,2.1l-16,16C2081.3,2392.4,2080.9,2392.6,2080.5,2392.6z"/>
	</g>
	<g>
		<path class="st1" d="M2016.5,2392.5c-0.4,0-0.8-0.1-1.1-0.4l-16-16c-0.6-0.6-0.6-1.5,0-2.1l16-16c0.6-0.6,1.5-0.6,2.1,0l16,16
			c0.6,0.6,0.6,1.5,0,2.1l-16,16C2017.3,2392.4,2016.9,2392.5,2016.5,2392.5z M2002.7,2375l13.9,13.9l13.9-13.9l-14-13.8
			L2002.7,2375z"/>
	</g>
	<g>
		<path class="st1" d="M1952.5,2392.6c-0.4,0-0.8-0.1-1.1-0.4l-16-16c-0.6-0.6-0.6-1.5,0-2.1l16-16c0.6-0.6,1.5-0.6,2.1,0
			s0.6,1.5,0,2.1l-14.9,14.9l14.9,14.9c0.6,0.6,0.6,1.5,0,2.1C1953.3,2392.4,1952.9,2392.6,1952.5,2392.6z"/>
	</g>
	<g>
		
			<rect x="2142.6" y="2373.1" transform="matrix(0.7071 -0.7071 0.7071 0.7071 -1051.332 2212.0854)" class="st1" width="4" height="4"/>
	</g>
</g>
<g>
	<g>
		<g>
			<rect x="1088.5" y="2641.4" class="st0" width="1920" height="1080"/>
		</g>
	</g>
	<g>
		<g>
			<path class="st2" d="M1148.2,2747.4c-0.2,0-0.4-0.1-0.5-0.2c-0.2-0.2-0.3-0.5-0.2-0.8l10.7-26.3c0.1-0.2,0.2-0.3,0.4-0.4
				c0.2-0.1,0.4-0.1,0.6,0l26.4,10.7c0.3,0.1,0.5,0.4,0.5,0.7s-0.2,0.6-0.5,0.7l-37.1,15.6
				C1148.4,2747.4,1148.3,2747.4,1148.2,2747.4z M1159.4,2721.3l-9.8,23.9l33.7-14.2L1159.4,2721.3z"/>
		</g>
		<g>
			<polygon class="st1" points="1120.5,2697.6 1138.7,2696.4 1137.5,2678.1 			"/>
		</g>
		<g>
			<polygon class="st1" points="2888.8,3677.4 2914.6,3665.6 2905.8,3646.3 			"/>
		</g>
		<g>
			<path class="st2" d="M2948.6,3684.7c-0.1,0-0.2,0-0.3-0.1c-0.3-0.1-0.5-0.4-0.5-0.7l-1.2-28.4c0-0.2,0.1-0.4,0.2-0.5
				c0.1-0.2,0.3-0.2,0.5-0.2l28.4-1.2c0.3,0,0.6,0.2,0.7,0.4c0.1,0.3,0.1,0.6-0.1,0.8l-27.2,29.6
				C2949,3684.6,2948.8,3684.7,2948.6,3684.7z M2948.1,3656.2l1.1,25.8l24.7-26.9L2948.1,3656.2z"/>
		</g>
		<g>
			<polygon class="st1" points="2892.2,3576.8 2888.4,3599 2910.6,3602.9 			"/>
		</g>
		<g>
			<polygon class="st2" points="2951.2,3618.7 2941.5,3624.6 2947.4,3634.3 			"/>
		</g>
	</g>
	<g>
		<g>
			<g>
				<path class="st2" d="M2144.5,3589.9c-0.4,0-0.8-0.1-1.1-0.4l-16-16c-0.6-0.6-0.6-1.5,0-2.1l16-16c0.6-0.6,1.5-0.6,2.1,0l16,16
					c0.6,0.6,0.6,1.5,0,2.1l-16,16C2145.3,3589.8,2144.9,3589.9,2144.5,3589.9z M2130.7,3572.5l13.9,13.9l13.9-13.9l-13.9-13.9
					L2130.7,3572.5z"/>
			</g>
			<g>
				<path class="st2" d="M2080.5,3589.9c-0.4,0-0.8-0.1-1.1-0.4l-16-16c-0.6-0.6-0.6-1.5,0-2.1l16-16c0.6-0.6,1.5-0.6,2.1,0l16,16
					c0.6,0.6,0.6,1.5,0,2.1l-16,16C2081.3,3589.8,2080.9,3589.9,2080.5,3589.9z M2066.7,3572.5l13.9,13.9l13.9-13.9l-13.9-13.9
					L2066.7,3572.5z"/>
			</g>
			<g>
				<path class="st2" d="M1952.5,3589.9c-0.4,0-0.8-0.1-1.1-0.4l-16-16c-0.6-0.6-0.6-1.5,0-2.1l16-16c0.6-0.6,1.5-0.6,2.1,0l16,16
					c0.6,0.6,0.6,1.5,0,2.1l-16,16C1953.3,3589.8,1952.9,3589.9,1952.5,3589.9z M1938.7,3572.5l13.9,13.9l13.9-13.9l-13.9-13.9
					L1938.7,3572.5z"/>
			</g>
		</g>
		<g>
			<path class="st1" d="M2144.5,3590c-0.4,0-0.8-0.1-1.1-0.4l-16-16c-0.6-0.6-0.6-1.5,0-2.1l16-16c0.6-0.6,1.5-0.6,2.1,0
				s0.6,1.5,0,2.1l-14.9,14.9l14.9,14.9c0.6,0.6,0.6,1.5,0,2.1C2145.3,3589.8,2144.9,3590,2144.5,3590z"/>
		</g>
		<g>
			<path class="st1" d="M2080.5,3590c-0.4,0-0.8-0.1-1.1-0.4c-0.6-0.6-0.6-1.5,0-2.1l14.9-14.9l-14.9-14.9c-0.6-0.6-0.6-1.5,0-2.1
				c0.6-0.6,1.5-0.6,2.1,0l16,16c0.6,0.6,0.6,1.5,0,2.1l-16,16C2081.3,3589.8,2080.9,3590,2080.5,3590z"/>
		</g>
		<g>
			<path class="st1" d="M2016.5,3589.9c-0.4,0-0.8-0.1-1.1-0.4l-16-16c-0.6-0.6-0.6-1.5,0-2.1l16-16c0.6-0.6,1.5-0.6,2.1,0l16,16
				c0.6,0.6,0.6,1.5,0,2.1l-16,16C2017.3,3589.8,2016.9,3589.9,2016.5,3589.9z M2002.7,3572.5l13.9,13.9l13.9-13.9l-13.9-13.9
				L2002.7,3572.5z"/>
		</g>
		<g>
			<path class="st1" d="M1952.5,3590c-0.4,0-0.8-0.1-1.1-0.4l-16-16c-0.6-0.6-0.6-1.5,0-2.1l16-16c0.6-0.6,1.5-0.6,2.1,0
				s0.6,1.5,0,2.1l-14.9,14.9l14.9,14.9c0.6,0.6,0.6,1.5,0,2.1C1953.3,3589.8,1952.9,3590,1952.5,3590z"/>
		</g>
		<g>
			
				<rect x="2142.5" y="3570.5" transform="matrix(0.7071 -0.7071 0.7071 0.7071 -1898.0201 2562.7859)" class="st1" width="4" height="4"/>
		</g>
	</g>
</g>
<g>
	<g>
		<path class="st0" d="M-128.5,2826.3L-128.5,2826.3c-70.4,0-128-57.6-128-128l0,0c0-70.4,57.6-128,128-128l0,0
			c70.4,0,128,57.6,128,128l0,0C-0.5,2768.7-58.1,2826.3-128.5,2826.3z"/>
	</g>
	<g>
		<path class="st2" d="M-38.8,2691.1c0-0.2-0.2-0.3-0.3-0.3h-107.5c-0.2,0-0.3,0.2-0.3,0.3v14.3c0,0.2,0.2,0.3,0.3,0.3h107.5
			c0.2,0,0.3-0.1,0.3-0.3c0.2-2.2,0.3-4.4,0.3-7.2C-38.5,2695.5-38.6,2693.2-38.8,2691.1z"/>
		<path class="st2" d="M-74.5,2719.1c-8.4,21.7-29.4,37.1-54,37.1c-31.9,0-57.8-25.9-57.8-57.8c0-31.9,25.9-57.8,57.8-57.8
			c24.6,0,45.6,15.4,54,37.1h33.7c-9.4-39.7-45.1-69.3-87.7-69.3c-49.7,0-90.1,40.3-90.1,90.1c0,49.7,40.3,90.1,90.1,90.1
			c42.6,0,78.3-29.6,87.7-69.3h-33.7V2719.1z"/>
		<path class="st1" d="M-39.1,2705.8c0.2,0,0.3-0.1,0.3-0.3c0.2-2.2,0.3-4.4,0.3-7.2c0-2.7-0.1-5-0.3-7.2c0-0.2-0.2-0.3-0.3-0.3h-32
			c0.3,2.5,0.5,5,0.5,7.5s-0.2,5.1-0.5,7.5H-39.1z"/>
	</g>
</g>
<g>
	<path class="st0" d="M-425.8,2826.3L-425.8,2826.3c-70.4,0-128-57.6-128-128l0,0c0-70.4,57.6-128,128-128l0,0
		c70.4,0,128,57.6,128,128l0,0C-297.8,2768.7-355.4,2826.3-425.8,2826.3z"/>
	<g>
		<path class="st1" d="M-425.8,2754.6c-31.1,0-56.3-25.2-56.3-56.3s25.2-56.3,56.3-56.3c18.4,0,34.7,8.8,45,22.5h38.4
			c-13.3-33-45.7-56.3-83.4-56.3c-49.7,0-90,40.3-90,90s40.3,90,90,90c37.8,0,70.1-23.3,83.4-56.3h-38.4
			C-391.1,2745.8-407.4,2754.6-425.8,2754.6z"/>
		<path class="st2" d="M-335.9,2701.9c0.1-0.4,0.1-0.7,0.1-1.1v-2.4C-335.8,2699.5-335.8,2700.7-335.9,2701.9z"/>
		<path class="st2" d="M-335.9,2694.8c0.1,1.2,0.1,2.4,0.1,3.6v-2.4C-335.8,2695.5-335.8,2695.1-335.9,2694.8z"/>
		<path class="st2" d="M-374.7,2698.3c0-3.8-0.2-7.6-0.7-11.3h-62.7c-4.9,0-8.8,3.9-8.8,8.8v4.9c0,4.9,3.9,8.8,8.8,8.8h62.7
			C-374.9,2705.9-374.7,2702.2-374.7,2698.3z"/>
		<path class="st3" d="M-335.9,2694.6c-0.1-2.6-0.3-5.2-0.6-7.7h-8.1h-30.5h-0.3c0.5,3.7,0.7,7.4,0.7,11.3c0,3.9-0.2,7.6-0.7,11.3
			h0.3h30.5h8.1c0.3-2.5,0.5-5.1,0.6-7.7c0.1-1.2,0.1-2.4,0.1-3.6S-335.8,2695.8-335.9,2694.6z"/>
	</g>
</g>
<g>
	<g>
		<path class="st0" d="M166.9,3163.1L166.9,3163.1c-70.4,0-128-57.6-128-128l0,0c0-70.4,57.6-128,128-128l0,0
			c70.4,0,128,57.6,128,128l0,0C294.9,3105.5,237.3,3163.1,166.9,3163.1z"/>
	</g>
	<g>
		<path class="st1" d="M166.9,3125.1L166.9,3125.1c-49.5,0-90-40.5-90-90l0,0c0-49.5,40.5-90,90-90l0,0c49.5,0,90,40.5,90,90l0,0
			C256.9,3084.6,216.4,3125.1,166.9,3125.1z"/>
	</g>
	<g>
		<path class="st2" d="M166.9,3108.6L166.9,3108.6c-40.4,0-73.4-33.1-73.4-73.4l0,0c0-40.4,33.1-73.4,73.4-73.4l0,0
			c40.4,0,73.4,33.1,73.4,73.4l0,0C240.4,3075.5,207.3,3108.6,166.9,3108.6z"/>
	</g>
	<g>
		<path class="st0" d="M166.9,3092L166.9,3092c-31.3,0-56.9-25.6-56.9-56.9l0,0c0-31.3,25.6-56.9,56.9-56.9l0,0
			c31.3,0,56.9,25.6,56.9,56.9l0,0C223.8,3066.4,198.2,3092,166.9,3092z"/>
	</g>
	<rect x="170" y="3007.9" class="st0" width="113.8" height="54.4"/>
	<path class="st2" d="M248.1,3044h-90.7c-4.9,0-8.9-4-8.9-8.9l0,0c0-4.9,4-8.9,8.9-8.9h90.7c4.9,0,8.9,4,8.9,8.9l0,0
		C256.9,3040,253,3044,248.1,3044z"/>
</g>
<g>
	<g>
		<path class="st0" d="M-425.8,3163.1L-425.8,3163.1c-70.4,0-128-57.6-128-128l0,0c0-70.4,57.6-128,128-128l0,0
			c70.4,0,128,57.6,128,128l0,0C-297.8,3105.5-355.4,3163.1-425.8,3163.1z"/>
	</g>
	<g>
		<path class="st1" d="M-425.8,3125.1L-425.8,3125.1c-49.5,0-90-40.5-90-90l0,0c0-49.5,40.5-90,90-90l0,0c49.5,0,90,40.5,90,90l0,0
			C-335.8,3084.6-376.3,3125.1-425.8,3125.1z"/>
	</g>
	<g>
		<path class="st2" d="M-431.3,3034.1h95.5c-0.5-49-40.8-89-90-89c-1.8,0-3.7,0.1-5.5,0.2V3034.1z"/>
	</g>
	<g>
		<path class="st2" d="M-425.8,3092L-425.8,3092c-40.4,0-73.4-33.1-73.4-73.4l0,0c0-40.4,33.1-73.4,73.4-73.4l0,0"/>
	</g>
	<g>
		<path class="st0" d="M-425.8,3092L-425.8,3092c-31.3,0-56.9-25.6-56.9-56.9l0,0c0-31.3,25.6-56.9,56.9-56.9l0,0
			c31.3,0,56.9,25.6,56.9,56.9l0,0C-368.9,3066.4-394.5,3092-425.8,3092z"/>
	</g>
	<rect x="-422.7" y="3007.9" class="st0" width="113.8" height="54.4"/>
	<path class="st2" d="M-344.6,3044h-90.7c-4.9,0-8.9-4-8.9-8.9l0,0c0-4.9,4-8.9,8.9-8.9h90.7c4.9,0,8.9,4,8.9,8.9l0,0
		C-335.8,3040-339.7,3044-344.6,3044z"/>
</g>
<g>
	<g>
		<path class="st0" d="M178.9,1038.7L178.9,1038.7c-70.4,0-128-57.6-128-128l0,0c0-70.4,57.6-128,128-128l0,0
			c70.4,0,128,57.6,128,128l0,0C306.9,981.1,249.3,1038.7,178.9,1038.7z"/>
	</g>
	<g>
		<path class="st1" d="M178.9,1000.7L178.9,1000.7c-49.5,0-90-40.5-90-90l0,0c0-49.5,40.5-90,90-90l0,0c49.5,0,90,40.5,90,90l0,0
			C268.9,960.2,228.4,1000.7,178.9,1000.7z"/>
	</g>
	<g>
		<path class="st2" d="M173.4,909.7h95.5c-0.5-49-40.8-89-90-89c-1.8,0-3.7,0.1-5.5,0.2V909.7z"/>
	</g>
	<g>
		<path class="st2" d="M178.9,967.6L178.9,967.6c-40.4,0-73.4-33.1-73.4-73.4l0,0c0-40.4,33.1-73.4,73.4-73.4l0,0"/>
	</g>
	<g>
		<path class="st0" d="M178.9,967.6L178.9,967.6c-31.3,0-56.9-25.6-56.9-56.9l0,0c0-31.3,25.6-56.9,56.9-56.9l0,0
			c31.3,0,56.9,25.6,56.9,56.9l0,0C235.8,942,210.2,967.6,178.9,967.6z"/>
	</g>
	<rect x="182" y="883.4" class="st0" width="113.8" height="54.4"/>
	<path class="st2" d="M260.1,919.5h-90.7c-4.9,0-8.9-4-8.9-8.9l0,0c0-4.9,4-8.9,8.9-8.9h90.7c4.9,0,8.9,4,8.9,8.9l0,0
		C268.9,915.6,265,919.5,260.1,919.5z"/>
</g>
<g>
	<g>
		<path class="st0" d="M166.9,2826.3L166.9,2826.3c-70.4,0-128-57.6-128-128l0,0c0-70.4,57.6-128,128-128l0,0
			c70.4,0,128,57.6,128,128l0,0C294.9,2768.7,237.3,2826.3,166.9,2826.3z"/>
	</g>
	<g>
		<path class="st1" d="M166.9,2788.3L166.9,2788.3c-49.5,0-90-40.5-90-90l0,0c0-49.5,40.5-90,90-90l0,0c49.5,0,90,40.5,90,90l0,0
			C256.9,2747.8,216.4,2788.3,166.9,2788.3z"/>
	</g>
	<g>
		<path class="st0" d="M166.9,2755.2L166.9,2755.2c-31.3,0-56.9-25.6-56.9-56.9l0,0c0-31.3,25.6-56.9,56.9-56.9l0,0
			c31.3,0,56.9,25.6,56.9,56.9l0,0C223.8,2729.6,198.2,2755.2,166.9,2755.2z"/>
	</g>
	<rect x="170" y="2668.5" class="st0" width="113.8" height="59.5"/>
	<path class="st2" d="M248.1,2707.1h-90.7c-4.9,0-8.9-4-8.9-8.9l0,0c0-4.9,4-8.9,8.9-8.9h90.7c4.9,0,8.9,4,8.9,8.9l0,0
		C256.9,2703.2,253,2707.1,248.1,2707.1z"/>
</g>
<path class="st1" d="M248.1,3026.2h-8.2c0.4,2.9,0.6,5.9,0.6,8.9s-0.2,6-0.6,8.9h8.2c4.9,0,8.9-4,8.9-8.9l0,0
	C256.9,3030.2,253,3026.2,248.1,3026.2z"/>
<g>
	<g>
		<path class="st0" d="M-128.5,3163.1L-128.5,3163.1c-70.4,0-128-57.6-128-128l0,0c0-70.4,57.6-128,128-128l0,0
			c70.4,0,128,57.6,128,128l0,0C-0.5,3105.5-58.1,3163.1-128.5,3163.1z"/>
	</g>
	<g>
		<path class="st7" d="M-126.9,2962.3c0.4-0.1,0.9-0.2,1.3-0.3C-126,2962.1-126.4,2962.2-126.9,2962.3z"/>
		<path class="st7" d="M-123,2961.6c0.4-0.1,0.8-0.1,1.2-0.2C-122.3,2961.5-122.7,2961.6-123,2961.6z"/>
		<path class="st7" d="M-125,2961.9c0.4-0.1,0.8-0.1,1.3-0.2C-124.1,2961.8-124.5,2961.9-125,2961.9z"/>
		<path class="st7" d="M-115.1,2960.9c0.2,0,0.5,0,0.7,0C-114.6,2960.9-114.8,2960.9-115.1,2960.9z"/>
		<path class="st7" d="M-121.1,2961.4c0.4,0,0.7-0.1,1.1-0.1C-120.4,2961.3-120.7,2961.4-121.1,2961.4z"/>
		<path class="st7" d="M-128.7,2962.7c0.5-0.1,0.9-0.2,1.4-0.3C-127.8,2962.5-128.3,2962.6-128.7,2962.7z"/>
		<path class="st7" d="M-119.2,2961.2c0.3,0,0.7-0.1,1-0.1C-118.5,2961.1-118.8,2961.2-119.2,2961.2z"/>
		<path class="st7" d="M-117.2,2961c0.3,0,0.6,0,0.9-0.1C-116.6,2961-116.9,2961-117.2,2961z"/>
		<path class="st7" d="M-130.6,2963.1c0.5-0.1,1-0.2,1.5-0.4C-129.6,2962.9-130.1,2963-130.6,2963.1z"/>
		<path class="st7" d="M-185.3,3020.6c0.1-0.5,0.2-1,0.3-1.5C-185.1,3019.6-185.2,3020.1-185.3,3020.6z"/>
		<path class="st7" d="M-185.6,3022.3c0.1-0.4,0.1-0.8,0.2-1.2C-185.5,3021.5-185.6,3021.9-185.6,3022.3z"/>
		<path class="st7" d="M-132.4,2963.6c0.5-0.1,1-0.3,1.6-0.4C-131.4,2963.3-131.9,2963.5-132.4,2963.6z"/>
		<path class="st7" d="M-134.3,2964.1c0.5-0.2,1.1-0.3,1.6-0.5C-133.2,2963.8-133.7,2964-134.3,2964.1z"/>
		<path class="st7" d="M-60,2982.6c0.8,0.8,1.7,1.7,2.5,2.6C-58.3,2984.3-59.1,2983.5-60,2982.6z"/>
		<path class="st7" d="M-49.9,2995.1c0.6,1,1.3,2,1.9,3.1C-48.7,2997.1-49.3,2996.1-49.9,2995.1z"/>
		<path class="st7" d="M-112.5,2960.9L-112.5,2960.9c8.3,0,16.3,1.4,23.8,3.9C-96.1,2962.3-104.2,2960.9-112.5,2960.9z"/>
		<path class="st7" d="M-134.3,2964.2c-25.3,7.8-44.8,28.7-50.6,54.8C-179.1,2992.8-159.6,2971.9-134.3,2964.2z"/>
		<path class="st7" d="M-51.9,2992.2c0.7,1,1.4,2,2,3C-50.6,2994.1-51.2,2993.1-51.9,2992.2z"/>
		<path class="st7" d="M-81.9,2967.4c2.2,1,4.3,2.1,6.4,3.3C-77.6,2969.5-79.7,2968.4-81.9,2967.4z"/>
		<path class="st7" d="M-63.9,2979c0.9,0.8,1.8,1.6,2.6,2.4C-62.1,2980.6-63,2979.8-63.9,2979z"/>
		<path class="st7" d="M-86.9,2965.4c1.1,0.4,2.3,0.9,3.4,1.3C-84.7,2966.3-85.8,2965.8-86.9,2965.4z"/>
		<path class="st7" d="M-75.5,2970.7c1,0.6,2.1,1.2,3.1,1.9C-73.5,2971.9-74.5,2971.3-75.5,2970.7z"/>
		<path class="st1" d="M-112.5,3109.6c-37,0-67.7-27.1-73.4-62.5c0-0.1-0.1-0.2-0.1-0.3c-0.7-3.8-1.1-7.6-1-11.4
			c0-3.8,0.3-7.7,1-11.4c0-0.2,0.1-0.4,0.1-0.6c0-0.3,0.1-0.6,0.1-0.8c0.1-0.4,0.1-0.8,0.2-1.2c0-0.2,0.1-0.4,0.1-0.5
			c0.1-0.5,0.2-1,0.3-1.5c0-0.1,0-0.1,0-0.2c5.8-26.1,25.3-47,50.6-54.8h0.1c0.5-0.2,1.1-0.3,1.6-0.5c0.1,0,0.1,0,0.2,0
			c0.5-0.1,1-0.3,1.6-0.4c0.1,0,0.2,0,0.3-0.1c0.5-0.1,1-0.2,1.5-0.4c0.1,0,0.3-0.1,0.4-0.1c0.5-0.1,0.9-0.2,1.4-0.3
			c0.2,0,0.3-0.1,0.5-0.1c0.4-0.1,0.9-0.2,1.3-0.3c0.2,0,0.4-0.1,0.6-0.1c0.4-0.1,0.8-0.1,1.3-0.2c0.2,0,0.4-0.1,0.7-0.1
			c0.4-0.1,0.8-0.1,1.2-0.2c0.3,0,0.5-0.1,0.8-0.1c0.4,0,0.7-0.1,1.1-0.1c0.3,0,0.6-0.1,0.9-0.1c0.3,0,0.7-0.1,1-0.1s0.7,0,1-0.1
			c0.3,0,0.6,0,0.9-0.1c0.4,0,0.8,0,1.2,0c0.2,0,0.5,0,0.7,0c0.6,0,1.3,0,1.9,0l0,0l0,0c8.3,0,16.3,1.4,23.8,3.9
			c0.6,0.2,1.1,0.4,1.7,0.6c1.1,0.4,2.3,0.9,3.4,1.3c0.6,0.2,1.1,0.5,1.7,0.7c2.2,1,4.3,2.1,6.4,3.3c1,0.6,2.1,1.2,3.1,1.9
			c3,1.9,5.9,4.1,8.6,6.4c0.9,0.8,1.8,1.6,2.6,2.4c0.4,0.4,0.9,0.8,1.3,1.2c0.8,0.8,1.7,1.7,2.5,2.6c2,2.2,3.9,4.5,5.6,6.9
			c0.7,1,1.4,2,2,3s1.3,2,1.9,3.1c2.8,4.9,5.1,10.2,6.8,15.8h0.6c-9.5-39.4-45.1-68.7-87.4-68.7c-0.4,0-0.8,0-1.2,0
			c0.4-0.1,0.8-0.1,1.2-0.2c-11.8,0-23.6,2.3-34.5,6.8s-20.9,11.2-29.2,19.5c-8.4,8.4-15.1,18.4-19.6,29.2s-6.9,22.8-6.9,34.5
			c0,11.9,2.4,23.7,6.9,34.5c4.5,11,11.3,20.9,19.6,29.2c8,8,17.6,14.5,28,18.9c0.4,0.2,0.8,0.3,1.1,0.5h0.1h0.1
			c10.6,4.4,22.2,6.8,34.4,6.8c42.5,0,78-29.3,87.5-68.9h-0.6C-50.4,3087-78.8,3109.4-112.5,3109.6z"/>
		<path class="st2" d="M-49.9,2995.1c-0.6-1-1.3-2-2-3c-1.7-2.4-3.6-4.7-5.6-6.9c-0.8-0.9-1.6-1.7-2.5-2.6c-0.4-0.4-0.8-0.8-1.3-1.2
			c-0.9-0.8-1.7-1.6-2.6-2.4c-2.7-2.3-5.6-4.5-8.6-6.4c-1-0.6-2-1.3-3.1-1.9c-2.1-1.2-4.2-2.3-6.4-3.3c-0.5-0.2-1.1-0.5-1.7-0.7
			c-1.1-0.5-2.2-0.9-3.4-1.3c-0.6-0.2-1.1-0.4-1.7-0.6c-7.5-2.5-15.5-3.9-23.8-3.9l0,0c-0.6,0-1.3,0-1.9,0c-0.2,0-0.5,0-0.7,0
			c-0.4,0-0.8,0-1.2,0c-0.3,0-0.6,0-0.9,0.1c-0.3,0-0.7,0-1,0.1c-0.3,0-0.7,0.1-1,0.1s-0.6,0-0.9,0.1c-0.4,0-0.7,0.1-1.1,0.1
			c-0.3,0-0.5,0.1-0.8,0.1c-0.4,0-0.8,0.1-1.2,0.2c-0.2,0-0.4,0.1-0.7,0.1c-0.4,0.1-0.8,0.1-1.3,0.2c-0.2,0-0.4,0.1-0.6,0.1
			c-0.4,0.1-0.9,0.2-1.3,0.3c-0.2,0-0.3,0.1-0.5,0.1c-0.5,0.1-0.9,0.2-1.4,0.3c-0.1,0-0.3,0.1-0.4,0.1c-0.5,0.1-1,0.2-1.5,0.4
			c-0.1,0-0.2,0-0.3,0.1c-0.5,0.1-1.1,0.3-1.6,0.4c-0.1,0-0.1,0-0.2,0c-0.6,0.2-1.1,0.3-1.6,0.5h-0.1c-25.3,7.8-44.8,28.7-50.6,54.8
			c0,0.1,0,0.1,0,0.2c-0.1,0.5-0.2,1-0.3,1.5c0,0.2-0.1,0.4-0.1,0.5c-0.1,0.4-0.1,0.8-0.2,1.2c0,0.3-0.1,0.6-0.1,0.8
			s-0.1,0.4-0.1,0.6c-0.7,3.8-1,7.6-1,11.4c-0.1,3.8,0.3,7.7,1,11.4c0,0.1,0.1,0.2,0.1,0.3c5.6,35.4,36.4,62.5,73.4,62.5
			c33.7-0.1,62.1-22.5,71.2-53.3H-74c-0.2,0.4-0.3,0.8-0.4,1.2c-2.9,7-7.3,13.5-12.6,18.9c-5.4,5.4-11.9,9.7-18.9,12.6
			c-7,2.9-14.7,4.4-22.3,4.4c-7.7,0-15.3-1.5-22.3-4.4s-13.5-7.3-18.9-12.6c-5.4-5.4-9.7-11.9-12.6-18.9c-3-7-4.5-14.7-4.5-22.3
			c0-7.7,1.5-15.3,4.5-22.3c2.9-7,7.3-13.5,12.6-18.9c5.4-5.4,11.9-9.7,18.9-12.6c7-2.9,14.7-4.4,22.3-4.4c7.7,0,15.3,1.5,22.3,4.4
			s13.5,7.3,18.9,12.6c5.4,5.4,9.7,11.9,12.6,18.9c0.1,0.4,0.3,0.7,0.4,1.1h32.5c-1.7-5.6-3.9-10.8-6.8-15.8
			C-48.7,2997.1-49.3,2996.1-49.9,2995.1z M-186.8,3035.1L-186.8,3035.1L-186.8,3035.1z"/>
		<path class="st7" d="M-186.8,3035.1L-186.8,3035.1"/>
		<path class="st2" d="M-38.5,3035.4v-0.1v-0.1l0,0v-0.1v-0.1c0-4-3.2-7.1-7.2-7.1h-10.1h-14.7h-58.6c-4,0-7.2,3.2-7.2,7.2v0.3
			c0,4,3.2,7.2,7.2,7.2h58.6h14.7h10.1C-41.7,3042.5-38.5,3039.3-38.5,3035.4z"/>
	</g>
</g>
<g>
	
		<rect x="3908.1" y="1803" transform="matrix(0.7071 -0.7071 0.7071 0.7071 -205.229 3472.5164)" class="st1" width="362" height="362"/>
	
		<rect x="3977.3" y="1872.1" transform="matrix(0.7071 -0.7071 0.7071 0.7071 -205.2082 3472.5664)" class="st0" width="223.7" height="223.7"/>
	<rect x="4107.7" y="1914.8" class="st0" width="237.5" height="138.3"/>
	<rect x="4028.7" y="1949.4" class="st0" width="316.4" height="69.1"/>
	<polygon class="st2" points="4323.8,1962.6 4050.1,1962.6 4028.7,1984 4050.1,2005.3 4323.8,2005.3 4345.2,1984 	"/>
</g>
<g>
	<g>
		<path class="st2" d="M3188.9,2740.1c-0.2,0-0.4-0.1-0.5-0.2c-0.2-0.2-0.3-0.5-0.2-0.8l10.7-26.3c0.1-0.2,0.2-0.3,0.4-0.4
			c0.2-0.1,0.4-0.1,0.6,0l26.4,10.7c0.3,0.1,0.5,0.4,0.5,0.7s-0.2,0.6-0.5,0.7l-37.1,15.6C3189.1,2740.1,3189,2740.1,3188.9,2740.1z
			 M3200.1,2714l-9.8,23.9l33.7-14.2L3200.1,2714z"/>
	</g>
	<g>
		<polygon class="st1" points="3161.2,2690.3 3179.4,2689.1 3178.2,2670.8 		"/>
	</g>
	<g>
		<polygon class="st1" points="4929.5,3670.1 4955.3,3658.3 4946.5,3639 		"/>
	</g>
	<g>
		<path class="st2" d="M4989.3,3677.4c-0.1,0-0.2,0-0.3-0.1c-0.3-0.1-0.5-0.4-0.5-0.7l-1.2-28.4c0-0.2,0.1-0.4,0.2-0.5
			c0.1-0.2,0.3-0.2,0.5-0.2l28.4-1.2c0.3,0,0.6,0.2,0.7,0.4c0.1,0.3,0.1,0.6-0.1,0.8l-27.2,29.6
			C4989.7,3677.3,4989.5,3677.4,4989.3,3677.4z M4988.8,3648.9l1.1,25.8l24.7-26.9L4988.8,3648.9z"/>
	</g>
	<g>
		<polygon class="st1" points="4932.9,3569.5 4929.1,3591.7 4951.3,3595.6 		"/>
	</g>
	<g>
		<polygon class="st2" points="4991.9,3611.4 4982.2,3617.3 4988.1,3627 		"/>
	</g>
</g>
<g>
	<polygon class="st1" points="1930,3181.4 2048.5,3062.9 2097.2,3111.6 2234.7,3111.6 2048.5,2925.4 1792.5,3181.4 2048.5,3437.4 
		2234.7,3251.2 2097.2,3251.2 2048.5,3299.8 	"/>
	<polygon class="st2" points="2278.5,3155.4 2025.6,3155.4 1999.5,3181.4 2025.6,3207.4 2278.5,3207.4 2304.5,3181.4 	"/>
</g>
<text transform="matrix(1 0 0 1 2039.6289 2476.8706)" class="st1" style="font-family:'ArialMT'; font-size:32px;">a</text>
<g>
	<g>
		<rect x="1088.5" y="3998.1" class="st0" width="1920" height="1080"/>
	</g>
</g>
<g>
	<g>
		<rect x="3129.2" y="3998.1" class="st0" width="1920" height="1080"/>
	</g>
	<g>
		<g>
			<path class="st2" d="M3188.9,4104.1c-0.2,0-0.4-0.1-0.5-0.2c-0.2-0.2-0.3-0.5-0.2-0.8l10.7-26.3c0.1-0.2,0.2-0.3,0.4-0.4
				s0.4-0.1,0.6,0l26.4,10.7c0.3,0.1,0.5,0.4,0.5,0.7s-0.2,0.6-0.5,0.7l-37.1,15.6C3189.1,4104.1,3189,4104.1,3188.9,4104.1z
				 M3200.1,4078l-9.8,23.9l33.7-14.2L3200.1,4078z"/>
		</g>
		<g>
			<polygon class="st1" points="3161.2,4054.3 3179.4,4053.1 3178.2,4034.8 			"/>
		</g>
		<g>
			<polygon class="st1" points="4929.5,5034.1 4955.3,5022.3 4946.5,5003 			"/>
		</g>
		<g>
			<path class="st2" d="M4989.3,5041.4c-0.1,0-0.2,0-0.3-0.1c-0.3-0.1-0.5-0.4-0.5-0.7l-1.2-28.4c0-0.2,0.1-0.4,0.2-0.5
				c0.1-0.2,0.3-0.2,0.5-0.2l28.4-1.2c0.3,0,0.6,0.2,0.7,0.4c0.1,0.3,0.1,0.6-0.1,0.8l-27.2,29.6
				C4989.7,5041.3,4989.5,5041.4,4989.3,5041.4z M4988.8,5012.9l1.1,25.8l24.7-26.9L4988.8,5012.9z"/>
		</g>
		<g>
			<polygon class="st1" points="4932.9,4933.5 4929.1,4955.7 4951.3,4959.6 			"/>
		</g>
		<g>
			<polygon class="st2" points="4991.9,4975.4 4982.2,4981.3 4988.1,4991 			"/>
		</g>
	</g>
</g>
<g>
	<g>
		<path class="st2" d="M1148.2,4104.1c-0.2,0-0.4-0.1-0.5-0.2c-0.2-0.2-0.3-0.5-0.2-0.8l10.7-26.3c0.1-0.2,0.2-0.3,0.4-0.4
			c0.2-0.1,0.4-0.1,0.6,0l26.4,10.7c0.3,0.1,0.5,0.4,0.5,0.7s-0.2,0.6-0.5,0.7l-37.1,15.6
			C1148.4,4104.1,1148.3,4104.1,1148.2,4104.1z M1159.4,4078l-9.8,23.9l33.7-14.2L1159.4,4078z"/>
	</g>
	<g>
		<polygon class="st1" points="1120.5,4054.3 1138.7,4053.1 1137.5,4034.8 		"/>
	</g>
	<g>
		<polygon class="st1" points="2888.8,5034.1 2914.6,5022.3 2905.8,5003 		"/>
	</g>
	<g>
		<path class="st2" d="M2948.6,5041.4c-0.1,0-0.2,0-0.3-0.1c-0.3-0.1-0.5-0.4-0.5-0.7l-1.2-28.4c0-0.2,0.1-0.4,0.2-0.5
			c0.1-0.2,0.3-0.2,0.5-0.2l28.4-1.2c0.3,0,0.6,0.2,0.7,0.4c0.1,0.3,0.1,0.6-0.1,0.8l-27.2,29.6
			C2949,5041.3,2948.8,5041.4,2948.6,5041.4z M2948.1,5012.9l1.1,25.8l24.7-26.9L2948.1,5012.9z"/>
	</g>
	<g>
		<polygon class="st1" points="2892.2,4933.5 2888.4,4955.7 2910.6,4959.6 		"/>
	</g>
	<g>
		<polygon class="st2" points="2951.2,4975.4 2941.5,4981.3 2947.4,4991 		"/>
	</g>
</g>
<g>
	<g>
		<g>
			<path class="st2" d="M2144.5,4946.7c-0.4,0-0.8-0.1-1.1-0.4l-16-16c-0.6-0.6-0.6-1.5,0-2.1l16-16c0.6-0.6,1.5-0.6,2.1,0l16,16
				c0.6,0.6,0.6,1.5,0,2.1l-16,16C2145.3,4946.5,2144.9,4946.7,2144.5,4946.7z M2130.7,4929.2l13.9,13.9l13.9-13.9l-13.9-13.9
				L2130.7,4929.2z"/>
		</g>
		<g>
			<path class="st2" d="M2080.5,4946.7c-0.4,0-0.8-0.1-1.1-0.4l-16-16c-0.6-0.6-0.6-1.5,0-2.1l16-16c0.6-0.6,1.5-0.6,2.1,0l16,16
				c0.6,0.6,0.6,1.5,0,2.1l-16,16C2081.3,4946.5,2080.9,4946.7,2080.5,4946.7z M2066.7,4929.2l13.9,13.9l13.9-13.9l-13.9-13.9
				L2066.7,4929.2z"/>
		</g>
		<g>
			<path class="st2" d="M1952.5,4946.7c-0.4,0-0.8-0.1-1.1-0.4l-16-16c-0.6-0.6-0.6-1.5,0-2.1l16-16c0.6-0.6,1.5-0.6,2.1,0l16,16
				c0.6,0.6,0.6,1.5,0,2.1l-16,16C1953.3,4946.5,1952.9,4946.7,1952.5,4946.7z M1938.7,4929.2l13.9,13.9l13.9-13.9l-13.9-13.9
				L1938.7,4929.2z"/>
		</g>
	</g>
	<g>
		<path class="st1" d="M2144.5,4946.7c-0.4,0-0.8-0.1-1.1-0.4l-16-16c-0.6-0.6-0.6-1.5,0-2.1l16-16c0.6-0.6,1.5-0.6,2.1,0
			s0.6,1.5,0,2.1l-14.9,14.9l14.9,14.9c0.6,0.6,0.6,1.5,0,2.1C2145.3,4946.6,2144.9,4946.7,2144.5,4946.7z"/>
	</g>
	<g>
		<path class="st1" d="M2080.5,4946.7c-0.4,0-0.8-0.1-1.1-0.4c-0.6-0.6-0.6-1.5,0-2.1l14.9-14.9l-14.9-14.9c-0.6-0.6-0.6-1.5,0-2.1
			c0.6-0.6,1.5-0.6,2.1,0l16,16c0.6,0.6,0.6,1.5,0,2.1l-16,16C2081.3,4946.6,2080.9,4946.7,2080.5,4946.7z"/>
	</g>
	<g>
		<path class="st1" d="M2016.5,4946.7c-0.4,0-0.8-0.1-1.1-0.4l-16-16c-0.6-0.6-0.6-1.5,0-2.1l16-16c0.6-0.6,1.5-0.6,2.1,0l16,16
			c0.6,0.6,0.6,1.5,0,2.1l-16,16C2017.3,4946.5,2016.9,4946.7,2016.5,4946.7z M2002.7,4929.2l13.9,13.9l13.9-13.9l-13.9-13.9
			L2002.7,4929.2z"/>
	</g>
	<g>
		<path class="st1" d="M1952.5,4946.7c-0.4,0-0.8-0.1-1.1-0.4l-16-16c-0.6-0.6-0.6-1.5,0-2.1l16-16c0.6-0.6,1.5-0.6,2.1,0
			s0.6,1.5,0,2.1l-14.9,14.9l14.9,14.9c0.6,0.6,0.6,1.5,0,2.1C1953.3,4946.6,1952.9,4946.7,1952.5,4946.7z"/>
	</g>
	<g>
		
			<rect x="2142.5" y="4927.2" transform="matrix(0.7071 -0.7071 0.7071 0.7071 -2857.3738 2960.1191)" class="st1" width="4" height="4"/>
	</g>
</g>
<text transform="matrix(1 0 0 1 4080.2581 2476.8706)" class="st1" style="font-family:'ArialMT'; font-size:32px;">b</text>
<text transform="matrix(1 0 0 1 2040.5273 3668.5151)" class="st1" style="font-family:'ArialMT'; font-size:32px;">c</text>
<text transform="matrix(1 0 0 1 4080.2581 3668.5151)" class="st1" style="font-family:'ArialMT'; font-size:32px;">d</text>
<g>
	<g>
		<g>
			<path class="st0" d="M1736.4,1038.7L1736.4,1038.7c-70.4,0-128-57.6-128-128l0,0c0-70.4,57.6-128,128-128l0,0
				c70.4,0,128,57.6,128,128l0,0C1864.4,981.1,1806.8,1038.7,1736.4,1038.7z"/>
		</g>
		<g>
			<path class="st2" d="M1826.1,903.5c0-0.2-0.2-0.3-0.3-0.3h-107.5c-0.2,0-0.3,0.2-0.3,0.3v14.3c0,0.2,0.2,0.3,0.3,0.3h107.5
				c0.2,0,0.3-0.1,0.3-0.3c0.2-2.2,0.3-4.4,0.3-7.2C1826.4,907.9,1826.3,905.6,1826.1,903.5z"/>
			<path class="st2" d="M1790.4,931.5c-8.4,21.7-29.4,37.1-54,37.1c-31.9,0-57.8-25.9-57.8-57.8s25.9-57.8,57.8-57.8
				c24.6,0,45.6,15.4,54,37.1h33.7c-9.4-39.7-45.1-69.3-87.7-69.3c-49.7,0-90.1,40.3-90.1,90.1c0,49.7,40.3,90.1,90.1,90.1
				c42.6,0,78.3-29.6,87.7-69.3h-33.7V931.5z"/>
			<path class="st1" d="M1825.8,918.2c0.2,0,0.3-0.1,0.3-0.3c0.2-2.2,0.3-4.4,0.3-7.2c0-2.7-0.1-5-0.3-7.2c0-0.2-0.2-0.3-0.3-0.3
				h-32c0.3,2.5,0.5,5,0.5,7.5s-0.2,5.1-0.5,7.5H1825.8z"/>
		</g>
	</g>
</g>
<g>
	<polygon class="st1" points="2048.5,4698.1 1888.5,4538.1 2048.5,4378.1 2112.5,4442.1 2208.5,4442.1 2048.5,4282.1 1792.5,4538.1 
		2048.5,4794.1 2208.5,4634.1 2112.5,4634.1 	"/>
	<polygon class="st2" points="2304.5,4538.1 2270.6,4504.2 2270.6,4504.2 2270.6,4504.2 2022,4504.2 1988.1,4538.1 2022,4572 
		2022,4572 2022,4572 2270.6,4572 	"/>
</g>
<g>
	<polygon class="st1" points="2048.5,5523.2 1888.5,5363.2 2048.5,5203.2 2112.5,5267.2 2208.5,5267.2 2048.5,5107.2 1792.5,5363.2 
		2048.5,5619.2 2208.5,5459.2 2112.5,5459.2 	"/>
	<polygon class="st2" points="2304.5,5363.2 2270.6,5329.3 2270.6,5329.3 2270.6,5329.3 2022,5329.3 1988.1,5363.2 2022,5397.1 
		2022,5397.1 2022,5397.1 2270.6,5397.1 	"/>
</g>
<g>
	<polygon class="st1" points="1476.4,5462 1377.5,5363.2 1476.4,5264.3 1516,5303.8 1575.3,5303.8 1476.4,5204.9 1318.2,5363.2 
		1476.4,5521.4 1575.3,5422.5 1516,5422.5 	"/>
	<polygon class="st2" points="1634.6,5363.2 1613.7,5342.2 1613.7,5342.2 1613.7,5342.2 1460,5342.2 1439.1,5363.2 1460,5384.1 
		1460,5384.1 1460,5384.1 1613.7,5384.1 	"/>
</g>
<g>
	<g>
		<path class="st3" d="M3957.4,5107.2v-9.4h-1.9v-1.3l1.9-0.4v-1c0-0.8,0.1-1.5,0.4-2.1c0.3-0.6,0.6-1,1.1-1.3s1-0.6,1.5-0.7
			c0.5-0.1,1.1-0.2,1.6-0.2c0.4,0,0.7,0,1,0.1c0.3,0.1,0.5,0.1,0.7,0.1v1.8c-0.2-0.1-0.5-0.1-0.7-0.1c-0.3,0-0.7,0-1.1,0
			c-0.5,0-1,0.2-1.3,0.5c-0.3,0.3-0.5,0.9-0.5,1.6v1.4h3.1v1.7h-3.1v9.4h-2.7V5107.2z"/>
		<path class="st3" d="M3970.4,5107.3c-1,0-1.9-0.2-2.6-0.5c-0.7-0.3-1.3-0.8-1.7-1.3s-0.8-1.2-1-1.9c-0.2-0.7-0.3-1.5-0.3-2.3
			c0-1.2,0.3-2.2,0.8-3c0.5-0.8,1.2-1.4,2.1-1.8c0.9-0.4,1.9-0.6,3-0.6c1.4,0,2.5,0.3,3.3,0.8c0.8,0.5,1.4,1.3,1.8,2.2
			c0.4,0.9,0.5,1.9,0.5,2.9c0,1.2-0.3,2.2-0.8,3c-0.5,0.8-1.2,1.4-2.1,1.8C3972.5,5107.1,3971.5,5107.3,3970.4,5107.3z
			 M3970.4,5105.7c1,0,1.8-0.3,2.3-1s0.8-1.7,0.8-2.9c0-0.8-0.1-1.5-0.3-2.1c-0.2-0.6-0.5-1.1-1-1.5c-0.4-0.4-1-0.6-1.7-0.6
			c-1,0-1.8,0.3-2.3,1c-0.5,0.7-0.8,1.6-0.8,2.9c0,0.8,0.1,1.5,0.3,2.1c0.2,0.6,0.5,1.2,1,1.6S3969.7,5105.7,3970.4,5105.7z"/>
		<path class="st3" d="M3979.2,5107.2v-11.1h2.3v1.2c0.3-0.2,0.7-0.4,1.2-0.6s1-0.4,1.5-0.5s1.1-0.2,1.6-0.2c1.4,0,2.3,0.3,2.9,0.9
			c0.6,0.6,0.9,1.8,0.9,3.4v6.9h-2.6v-6.8c0-0.9-0.1-1.6-0.4-2c-0.3-0.4-0.9-0.6-1.8-0.5c-0.3,0-0.6,0-0.9,0.1
			c-0.3,0.1-0.7,0.2-1.1,0.3c-0.4,0.1-0.7,0.3-1,0.5v8.3h-2.6V5107.2z"/>
		<path class="st3" d="M3997,5107.3c-0.6,0-1.1-0.1-1.6-0.2s-0.8-0.5-1.1-0.9s-0.4-1-0.4-1.8v-6.6h-1.6v-1.2c0.6-0.1,1-0.3,1.3-0.4
			s0.5-0.3,0.6-0.6c0.1-0.1,0.1-0.3,0.2-0.5c0.1-0.2,0.2-0.4,0.2-0.7c0-0.3,0.2-0.5,0.3-0.8h1.6v2.5h3.5v1.7h-3.5v5.4
			c0,0.7,0,1.2,0.1,1.6c0.1,0.3,0.2,0.5,0.4,0.6c0.2,0.1,0.5,0.1,0.9,0.1c0.2,0,0.5,0,0.7-0.1c0.3,0,0.5-0.1,0.8-0.2
			c0.3-0.1,0.4-0.1,0.6-0.2l0.4,1.3c-0.2,0.2-0.5,0.3-0.9,0.4s-0.8,0.3-1.3,0.4C3997.9,5107.3,3997.5,5107.3,3997,5107.3z"/>
		<path class="st3" d="M4007.3,5101.6v-1.9h9.4v1.9H4007.3z"/>
		<path class="st3" d="M4024.1,5107.2l1.7-14.8h3.7l3,8.3l0.9,3.2l0.8-3.2l2.8-8.3h3.6l2,14.8h-2.7l-1-9l-0.3-4.1l-1.1,4.1l-3.3,9.1
			h-1.6l-3.5-9.1l-1.2-4.1l-0.3,4.1l-0.9,9H4024.1z"/>
		<path class="st3" d="M4050.8,5107.3c-1.8,0-3.2-0.5-4.2-1.5s-1.5-2.4-1.5-4.2c0-1.1,0.2-2,0.7-2.9c0.4-0.8,1.1-1.5,1.9-2
			c0.8-0.5,1.9-0.8,3.1-0.8c0.6,0,1.2,0.1,1.8,0.2c0.6,0.2,1.1,0.4,1.5,0.8c0.4,0.4,0.8,0.8,1,1.3s0.4,1.2,0.4,1.9
			c0,0.4,0,0.8,0,1.1s0,0.6-0.1,0.9h-8.8l0.2-1.5h6.2c0-0.5,0-1-0.1-1.5c-0.1-0.5-0.3-0.9-0.7-1.2c-0.4-0.3-0.9-0.4-1.6-0.4
			c-0.6,0-1.1,0.1-1.6,0.4c-0.5,0.3-0.8,0.8-1.1,1.5c-0.3,0.7-0.4,1.6-0.3,2.8c0,0.8,0.2,1.5,0.6,2c0.3,0.5,0.8,0.8,1.3,1
			c0.6,0.2,1.2,0.3,1.8,0.3c0.3,0,0.6,0,1.1-0.1c0.4-0.1,0.8-0.1,1.2-0.2s0.7-0.2,0.9-0.3l0.5,1.3c-0.3,0.2-0.7,0.4-1.1,0.5
			c-0.5,0.2-1,0.3-1.6,0.4C4051.8,5107.3,4051.3,5107.3,4050.8,5107.3z"/>
		<path class="st3" d="M4058.3,5107.2v-11.1h2.2l0.2,1.4l0.2,0.8v8.8h-2.6V5107.2z M4060.8,5099l-0.2-1.5c0.1-0.2,0.4-0.4,0.7-0.7
			c0.3-0.3,0.8-0.5,1.3-0.6c0.5-0.2,1-0.3,1.5-0.3c0.3,0,0.5,0,0.7,0s0.4,0.1,0.5,0.1v2.2c-0.1-0.1-0.3-0.1-0.5-0.2
			c-0.2-0.1-0.6-0.1-1.1-0.1s-0.9,0.1-1.3,0.2c-0.4,0.1-0.7,0.3-1,0.4C4061.1,5098.6,4061,5098.9,4060.8,5099z"/>
		<path class="st3" d="M4067.5,5107.2v-11.1h2.2l0.2,1.4l0.2,0.8v8.8h-2.6V5107.2z M4069.9,5099l-0.2-1.5c0.1-0.2,0.4-0.4,0.7-0.7
			c0.3-0.3,0.8-0.5,1.3-0.6c0.5-0.2,1-0.3,1.5-0.3c0.3,0,0.5,0,0.7,0c0.2,0,0.4,0.1,0.5,0.1v2.2c-0.1-0.1-0.3-0.1-0.5-0.2
			c-0.2-0.1-0.6-0.1-1.1-0.1s-0.9,0.1-1.3,0.2s-0.7,0.3-1,0.4C4070.2,5098.6,4070.1,5098.9,4069.9,5099z"/>
		<path class="st3" d="M4078.1,5094.1c-0.4,0-0.8-0.1-1.1-0.4c-0.3-0.2-0.5-0.6-0.5-1c0-0.3,0.1-0.6,0.3-0.8
			c0.2-0.2,0.4-0.4,0.7-0.6c0.3-0.1,0.6-0.2,0.9-0.2c0.5,0,0.9,0.1,1.2,0.4c0.3,0.3,0.4,0.6,0.4,1c0,0.5-0.2,0.8-0.6,1.1
			C4079,5093.9,4078.6,5094.1,4078.1,5094.1z M4076.9,5107.2v-11.1h2.6v11.1H4076.9z"/>
		<path class="st3" d="M4085.6,5107.3l-3.9-11.3h2.6l2,6.4l0.9,3.6h-0.7l0.9-3.6l2.1-6.4h2.6l2,6.4l0.9,3.5h-0.7l0.9-3.5l1.9-6.5
			h2.5l-3.9,11.3h-2.4l-2.2-7l-0.7-3h0.5l-0.7,3l-2.2,7h-2.4V5107.3z"/>
		<path class="st3" d="M4106.6,5107.3c-1.8,0-3.2-0.5-4.2-1.5s-1.5-2.4-1.5-4.2c0-1.1,0.2-2,0.7-2.9c0.4-0.8,1.1-1.5,1.9-2
			s1.9-0.8,3.1-0.8c0.6,0,1.2,0.1,1.8,0.2c0.6,0.2,1.1,0.4,1.5,0.8c0.4,0.4,0.8,0.8,1,1.3c0.2,0.5,0.4,1.2,0.4,1.9
			c0,0.4,0,0.8,0,1.1s0,0.6-0.1,0.9h-8.8l0.2-1.5h6.2c0-0.5,0-1-0.1-1.5c-0.1-0.5-0.3-0.9-0.7-1.2c-0.4-0.3-0.9-0.4-1.6-0.4
			c-0.6,0-1.1,0.1-1.6,0.4c-0.5,0.3-0.8,0.8-1.1,1.5c-0.3,0.7-0.4,1.6-0.3,2.8c0,0.8,0.2,1.5,0.6,2c0.3,0.5,0.8,0.8,1.3,1
			c0.6,0.2,1.2,0.3,1.8,0.3c0.3,0,0.6,0,1.1-0.1c0.4-0.1,0.8-0.1,1.2-0.2s0.7-0.2,0.9-0.3l0.5,1.3c-0.3,0.2-0.7,0.4-1.1,0.5
			c-0.5,0.2-1,0.3-1.6,0.4C4107.7,5107.3,4107.2,5107.3,4106.6,5107.3z"/>
		<path class="st3" d="M4117.5,5107.3c-0.8,0-1.4-0.1-2-0.4c-0.6-0.3-1-0.6-1.4-1.1c-0.3-0.5-0.5-1.1-0.5-1.7c0-0.7,0.2-1.3,0.7-1.8
			s1-0.9,1.8-1.2c0.5-0.2,1-0.3,1.6-0.4c0.6-0.1,1.1-0.2,1.7-0.2s1.1-0.1,1.6-0.1l0.5,0.6l-0.5,0.8c-0.3,0-0.6,0-1.1,0.1
			c-0.4,0-0.8,0.1-1.2,0.2c-0.4,0.1-0.7,0.2-1,0.3c-0.4,0.2-0.7,0.3-1,0.6c-0.3,0.2-0.4,0.6-0.4,1c0,0.6,0.2,1,0.5,1.3
			c0.4,0.3,0.9,0.4,1.6,0.4c0.4,0,0.7,0,1.1-0.1c0.4-0.1,0.7-0.2,0.9-0.3c0.3-0.1,0.4-0.2,0.5-0.3l0.5,0.5l-0.4,0.9
			c-0.3,0.3-0.8,0.5-1.4,0.7C4119,5107.3,4118.2,5107.3,4117.5,5107.3z M4123.4,5107.2h-2.5v-1.7h-0.1v-6.1c0-0.7-0.2-1.1-0.6-1.3
			c-0.4-0.2-0.9-0.3-1.7-0.3c-0.5,0-1,0-1.5,0.1c-0.5,0.1-1,0.2-1.4,0.3s-0.7,0.2-1,0.4l-0.6-1.7c0.2-0.1,0.5-0.2,1-0.4
			c0.5-0.2,1.1-0.3,1.7-0.5c0.7-0.1,1.3-0.2,2-0.2c0.9,0,1.8,0.1,2.5,0.3c0.7,0.2,1.2,0.5,1.6,1.1c0.4,0.6,0.6,1.3,0.6,2.3V5107.2z"
			/>
		<path class="st3" d="M4130.6,5107.3c-0.6,0-1.1-0.1-1.6-0.2s-0.8-0.5-1.1-0.9c-0.3-0.4-0.4-1-0.4-1.8v-6.6h-1.6v-1.2
			c0.6-0.1,1-0.3,1.3-0.4c0.3-0.1,0.5-0.3,0.6-0.6c0.1-0.1,0.1-0.3,0.2-0.5c0.1-0.2,0.2-0.4,0.2-0.7c0-0.3,0.2-0.5,0.3-0.8h1.6v2.5
			h3.5v1.7h-3.5v5.4c0,0.7,0,1.2,0.1,1.6c0.1,0.3,0.2,0.5,0.4,0.6c0.2,0.1,0.5,0.1,0.9,0.1c0.2,0,0.5,0,0.7-0.1
			c0.3,0,0.5-0.1,0.8-0.2s0.4-0.1,0.6-0.2l0.4,1.3c-0.2,0.2-0.5,0.3-0.9,0.4s-0.8,0.3-1.3,0.4
			C4131.5,5107.3,4131.1,5107.3,4130.6,5107.3z"/>
		<path class="st3" d="M4136.7,5107.2V5091h2.6v4.6l-0.1,2l-0.1-0.3c0.3-0.2,0.7-0.4,1.2-0.6s1-0.4,1.5-0.5s1.1-0.2,1.6-0.2
			c1.4,0,2.4,0.3,3,1c0.6,0.7,0.9,1.9,0.9,3.5v6.8h-2.6v-6.8c0-0.9-0.2-1.6-0.5-2c-0.3-0.4-0.9-0.6-1.9-0.5c-0.4,0-0.9,0.1-1.4,0.2
			c-0.6,0.2-1.1,0.4-1.6,0.7v8.3C4139.3,5107.2,4136.7,5107.2,4136.7,5107.2z"/>
		<path class="st3" d="M4155.9,5107.3c-1.8,0-3.2-0.5-4.2-1.5s-1.5-2.4-1.5-4.2c0-1.1,0.2-2,0.7-2.9c0.4-0.8,1.1-1.5,1.9-2
			c0.8-0.5,1.9-0.8,3.1-0.8c0.6,0,1.2,0.1,1.8,0.2c0.6,0.2,1.1,0.4,1.5,0.8c0.4,0.4,0.8,0.8,1,1.3c0.2,0.5,0.4,1.2,0.4,1.9
			c0,0.4,0,0.8,0,1.1s0,0.6-0.1,0.9h-8.8l0.2-1.5h6.2c0-0.5,0-1-0.1-1.5s-0.3-0.9-0.7-1.2c-0.4-0.3-0.9-0.4-1.6-0.4
			c-0.6,0-1.1,0.1-1.6,0.4c-0.5,0.3-0.8,0.8-1.1,1.5c-0.3,0.7-0.4,1.6-0.3,2.8c0,0.8,0.2,1.5,0.6,2c0.3,0.5,0.8,0.8,1.3,1
			c0.6,0.2,1.2,0.3,1.8,0.3c0.3,0,0.6,0,1.1-0.1c0.4-0.1,0.8-0.1,1.2-0.2s0.7-0.2,0.9-0.3l0.5,1.3c-0.3,0.2-0.7,0.4-1.1,0.5
			c-0.5,0.2-1,0.3-1.6,0.4C4157,5107.3,4156.4,5107.3,4155.9,5107.3z"/>
		<path class="st3" d="M4163.5,5107.2v-11.1h2.2l0.2,1.4l0.2,0.8v8.8h-2.6V5107.2z M4166,5099l-0.2-1.5c0.1-0.2,0.4-0.4,0.7-0.7
			c0.3-0.3,0.8-0.5,1.3-0.6c0.5-0.2,1-0.3,1.5-0.3c0.3,0,0.5,0,0.7,0s0.4,0.1,0.5,0.1v2.2c-0.1-0.1-0.3-0.1-0.5-0.2
			c-0.2-0.1-0.6-0.1-1.1-0.1s-0.9,0.1-1.3,0.2s-0.7,0.3-1,0.4C4166.3,5098.6,4166.1,5098.9,4166,5099z"/>
		<path class="st3" d="M4176.2,5106.5l0.4-1.7c0.1,0.1,0.3,0.2,0.7,0.3c0.4,0.1,0.8,0.2,1.3,0.3c0.5,0.1,1,0.2,1.6,0.2
			c0.7,0,1.3-0.1,1.7-0.3c0.4-0.2,0.6-0.5,0.6-0.9c0-0.3-0.1-0.5-0.3-0.7c-0.2-0.2-0.5-0.4-0.9-0.6c-0.4-0.2-0.8-0.4-1.4-0.6
			c-0.7-0.3-1.3-0.6-1.8-0.9c-0.5-0.3-0.9-0.7-1.2-1.1c-0.3-0.4-0.4-1-0.4-1.6c0-0.7,0.2-1.2,0.7-1.6c0.4-0.4,1-0.8,1.7-1
			c0.7-0.2,1.5-0.3,2.3-0.3s1.5,0.1,2.1,0.2c0.6,0.1,1,0.3,1.2,0.4l-0.4,1.7c-0.1-0.1-0.3-0.2-0.6-0.3c-0.3-0.1-0.6-0.2-1-0.2
			s-0.7-0.1-1.1-0.1c-0.8,0-1.4,0.1-1.7,0.3c-0.4,0.2-0.6,0.5-0.6,0.8c0,0.5,0.2,0.8,0.6,1.1c0.4,0.3,0.9,0.5,1.4,0.7
			c0.8,0.3,1.5,0.7,2.1,1c0.6,0.3,1.1,0.7,1.5,1.1s0.5,0.9,0.5,1.5c0,1-0.4,1.8-1.2,2.4c-0.8,0.5-1.9,0.8-3.3,0.8
			c-0.6,0-1.1,0-1.7-0.1c-0.5-0.1-1-0.2-1.5-0.3C4176.7,5106.8,4176.4,5106.6,4176.2,5106.5z"/>
		<path class="st3" d="M4190.8,5107.3c-0.8,0-1.4-0.1-2-0.4c-0.6-0.3-1-0.6-1.4-1.1c-0.3-0.5-0.5-1.1-0.5-1.7c0-0.7,0.2-1.3,0.7-1.8
			s1-0.9,1.8-1.2c0.5-0.2,1-0.3,1.6-0.4s1.1-0.2,1.7-0.2c0.6,0,1.1-0.1,1.6-0.1l0.5,0.6l-0.5,0.8c-0.3,0-0.6,0-1.1,0.1
			c-0.4,0-0.8,0.1-1.2,0.2s-0.7,0.2-1,0.3c-0.4,0.2-0.7,0.3-1,0.6c-0.3,0.2-0.4,0.6-0.4,1c0,0.6,0.2,1,0.5,1.3
			c0.4,0.3,0.9,0.4,1.6,0.4c0.4,0,0.7,0,1.1-0.1c0.4-0.1,0.7-0.2,0.9-0.3c0.3-0.1,0.4-0.2,0.5-0.3l0.5,0.5l-0.4,0.9
			c-0.3,0.3-0.8,0.5-1.4,0.7C4192.3,5107.3,4191.5,5107.3,4190.8,5107.3z M4196.8,5107.2h-2.5v-1.7h-0.1v-6.1c0-0.7-0.2-1.1-0.6-1.3
			c-0.4-0.2-0.9-0.3-1.7-0.3c-0.5,0-1,0-1.5,0.1c-0.5,0.1-1,0.2-1.4,0.3c-0.4,0.1-0.7,0.2-1,0.4l-0.6-1.7c0.2-0.1,0.5-0.2,1-0.4
			c0.5-0.2,1.1-0.3,1.7-0.5c0.7-0.1,1.3-0.2,2-0.2c0.9,0,1.8,0.1,2.5,0.3c0.7,0.2,1.2,0.5,1.6,1.1c0.4,0.6,0.6,1.3,0.6,2.3V5107.2z"
			/>
		<path class="st3" d="M4200.5,5107.2v-11.1h2.3v1.2c0.3-0.2,0.7-0.4,1.2-0.6s1-0.4,1.5-0.5s1.1-0.2,1.6-0.2c1.4,0,2.3,0.3,2.9,0.9
			c0.6,0.6,0.9,1.8,0.9,3.4v6.9h-2.6v-6.8c0-0.9-0.1-1.6-0.4-2c-0.3-0.4-0.9-0.6-1.8-0.5c-0.3,0-0.6,0-0.9,0.1
			c-0.3,0.1-0.7,0.2-1.1,0.3s-0.7,0.3-1,0.5v8.3h-2.6V5107.2z"/>
		<path class="st3" d="M4214,5106.5l0.4-1.7c0.1,0.1,0.3,0.2,0.7,0.3s0.8,0.2,1.3,0.3c0.5,0.1,1,0.2,1.6,0.2c0.7,0,1.3-0.1,1.7-0.3
			c0.4-0.2,0.6-0.5,0.6-0.9c0-0.3-0.1-0.5-0.3-0.7s-0.5-0.4-0.9-0.6c-0.4-0.2-0.8-0.4-1.4-0.6c-0.7-0.3-1.3-0.6-1.8-0.9
			c-0.5-0.3-0.9-0.7-1.2-1.1c-0.3-0.4-0.4-1-0.4-1.6c0-0.7,0.2-1.2,0.7-1.6c0.4-0.4,1-0.8,1.7-1c0.7-0.2,1.5-0.3,2.3-0.3
			c0.8,0,1.5,0.1,2.1,0.2c0.6,0.1,1,0.3,1.2,0.4l-0.4,1.7c-0.1-0.1-0.3-0.2-0.6-0.3c-0.3-0.1-0.6-0.2-1-0.2c-0.4,0-0.7-0.1-1.1-0.1
			c-0.8,0-1.4,0.1-1.7,0.3c-0.4,0.2-0.6,0.5-0.6,0.8c0,0.5,0.2,0.8,0.6,1.1c0.4,0.3,0.9,0.5,1.4,0.7c0.8,0.3,1.5,0.7,2.1,1
			c0.6,0.3,1.1,0.7,1.5,1.1c0.4,0.4,0.5,0.9,0.5,1.5c0,1-0.4,1.8-1.2,2.4c-0.8,0.5-1.9,0.8-3.3,0.8c-0.6,0-1.1,0-1.7-0.1
			c-0.5-0.1-1-0.2-1.5-0.3C4214.5,5106.8,4214.2,5106.6,4214,5106.5z"/>
	</g>
</g>
<g>
	<g>
		<path class="st3" d="M3910.2,4661.9c-1.4,0-2.6-0.2-3.6-0.6s-1.8-1.1-2.4-2s-0.9-2.3-0.9-4.1V4640h-3.7v-2.8
			c1.3-0.3,2.3-0.6,2.9-0.8c0.7-0.2,1.2-0.7,1.5-1.4c0.1-0.3,0.3-0.7,0.5-1.2s0.4-1,0.6-1.6c0.2-0.6,0.4-1.2,0.7-1.9h3.6v5.8h8.1
			v3.9h-8.1v12.4c0,1.6,0.1,2.8,0.2,3.6c0.2,0.8,0.5,1.2,0.9,1.4c0.5,0.2,1.1,0.3,2,0.3c0.5,0,1,0,1.7-0.1c0.6-0.1,1.2-0.2,1.8-0.4
			s1-0.3,1.3-0.5l1,3c-0.5,0.4-1.2,0.7-2.1,1s-1.8,0.6-2.9,0.8C3912.2,4661.7,3911.2,4661.9,3910.2,4661.9z"/>
		<path class="st3" d="M3924.1,4661.6v-37.1h6v10.4l-0.3,4.6l-0.3-0.6c0.7-0.5,1.6-1,2.6-1.4c1.1-0.5,2.2-0.9,3.5-1.2
			c1.2-0.3,2.5-0.5,3.7-0.5c3.1-0.1,5.4,0.7,6.9,2.3c1.4,1.6,2.1,4.3,2.1,8v15.5h-6V4646c0-2.1-0.4-3.6-1.1-4.5
			c-0.7-0.9-2.2-1.3-4.3-1.3c-0.9,0-2,0.2-3.3,0.6c-1.3,0.4-2.5,0.9-3.6,1.7v19.1H3924.1z"/>
		<path class="st3" d="M3968,4661.9c-4.1,0-7.3-1.2-9.6-3.5c-2.3-2.3-3.4-5.5-3.4-9.6c0-2.5,0.5-4.7,1.5-6.6s2.5-3.5,4.4-4.6
			c1.9-1.1,4.3-1.7,7.2-1.8c1.5,0,2.8,0.2,4.1,0.5s2.4,1,3.4,1.8c1,0.8,1.8,1.8,2.3,3c0.5,1.2,0.9,2.6,0.9,4.3c0,1,0,1.8,0,2.6
			c0,0.8-0.1,1.4-0.2,2h-20.1l0.5-3.3h14.3c0.1-1.2,0-2.4-0.2-3.5c-0.3-1.1-0.8-2-1.6-2.6c-0.8-0.7-2-1-3.6-1c-1.3,0-2.6,0.3-3.6,1
			c-1.1,0.7-1.9,1.8-2.5,3.3c-0.6,1.6-0.8,3.7-0.7,6.4c0.1,1.9,0.5,3.4,1.3,4.5c0.8,1.1,1.8,1.9,3.1,2.4s2.7,0.7,4.2,0.7
			c0.7,0,1.5-0.1,2.4-0.2c1-0.1,1.9-0.3,2.8-0.5c0.9-0.2,1.6-0.4,2-0.7l1.1,3c-0.6,0.5-1.5,0.9-2.6,1.2c-1.1,0.4-2.3,0.6-3.6,0.8
			C3970.5,4661.7,3969.2,4661.9,3968,4661.9z"/>
		<path class="st3" d="M3993.5,4660.1l0.8-3.9c0.3,0.2,0.8,0.4,1.6,0.7c0.8,0.3,1.8,0.5,3,0.8c1.1,0.2,2.3,0.4,3.6,0.4
			c1.7,0,2.9-0.2,3.8-0.8s1.3-1.2,1.3-2.2c0-0.7-0.3-1.2-0.8-1.7s-1.2-0.9-2.1-1.4c-0.9-0.4-1.9-0.9-3.1-1.3c-1.6-0.6-2.9-1.3-4.1-2
			c-1.2-0.7-2.1-1.6-2.8-2.6c-0.7-1-1-2.2-1-3.6c0-1.5,0.5-2.8,1.5-3.8s2.2-1.7,3.8-2.2s3.4-0.7,5.3-0.7c1.8,0,3.4,0.2,4.8,0.5
			c1.4,0.3,2.3,0.6,2.7,0.8l-0.9,4c-0.3-0.2-0.8-0.5-1.4-0.7c-0.6-0.2-1.4-0.4-2.2-0.5c-0.8-0.1-1.7-0.2-2.6-0.2
			c-1.8,0-3.1,0.2-4,0.7c-0.9,0.4-1.4,1.1-1.4,1.9c0,1.1,0.4,1.9,1.3,2.5c0.9,0.5,2,1.1,3.2,1.6c1.8,0.8,3.4,1.5,4.8,2.2
			c1.4,0.7,2.6,1.6,3.4,2.5c0.8,1,1.3,2.1,1.3,3.5c0,2.4-0.9,4.2-2.8,5.4c-1.9,1.2-4.4,1.8-7.6,1.8c-1.3,0-2.6-0.1-3.9-0.3
			c-1.3-0.2-2.4-0.4-3.3-0.7C3994.6,4660.7,3993.9,4660.4,3993.5,4660.1z"/>
		<path class="st3" d="M4030.9,4661.9c-2.4,0-4.3-0.4-6-1.1c-1.6-0.7-3-1.7-4-3c-1-1.3-1.8-2.7-2.2-4.3c-0.4-1.6-0.7-3.4-0.7-5.2
			c0.1-2.7,0.7-5,1.8-6.9c1.2-1.9,2.8-3.3,4.8-4.2s4.3-1.4,6.8-1.4c3.1,0,5.7,0.6,7.6,1.9c1.9,1.3,3.3,2.9,4.1,5
			c0.8,2.1,1.2,4.3,1.2,6.7c-0.1,2.7-0.7,5-1.8,6.9c-1.2,1.9-2.7,3.3-4.7,4.2C4035.7,4661.4,4033.5,4661.9,4030.9,4661.9z
			 M4031.1,4658.2c2.4,0,4.2-0.8,5.4-2.4c1.2-1.6,1.8-3.8,1.8-6.7c0-1.8-0.2-3.4-0.7-4.8s-1.2-2.6-2.3-3.5c-1-0.9-2.3-1.3-4-1.3
			c-2.4,0-4.1,0.7-5.3,2.2c-1.2,1.5-1.8,3.7-1.8,6.6c0,1.8,0.2,3.4,0.7,4.9s1.2,2.7,2.3,3.6
			C4028.2,4657.7,4029.5,4658.2,4031.1,4658.2z"/>
		<path class="st3" d="M4052.9,4661.6v-21.5h-4.3v-2.9l4.3-1v-2.2c0-1.9,0.3-3.5,1-4.7c0.6-1.3,1.5-2.3,2.5-3c1-0.7,2.2-1.3,3.4-1.6
			s2.4-0.5,3.6-0.5c0.8,0,1.6,0.1,2.4,0.2c0.7,0.1,1.2,0.2,1.5,0.3v4.1c-0.5-0.1-1.1-0.2-1.7-0.3c-0.6-0.1-1.5-0.1-2.6-0.1
			c-1.2,0-2.2,0.4-2.9,1.2c-0.8,0.8-1.2,2-1.2,3.6v3.1h7v3.9h-7v21.5h-6V4661.6z"/>
		<path class="st3" d="M4080,4661.9c-1.4,0-2.6-0.2-3.6-0.6s-1.8-1.1-2.4-2s-0.9-2.3-0.9-4.1V4640h-3.7v-2.8
			c1.3-0.3,2.3-0.6,2.9-0.8c0.7-0.2,1.2-0.7,1.5-1.4c0.1-0.3,0.3-0.7,0.5-1.2s0.4-1,0.6-1.6c0.2-0.6,0.4-1.2,0.7-1.9h3.6v5.8h8.1
			v3.9h-8.1v12.4c0,1.6,0.1,2.8,0.2,3.6c0.2,0.8,0.5,1.2,0.9,1.4c0.5,0.2,1.1,0.3,2,0.3c0.5,0,1,0,1.7-0.1c0.6-0.1,1.2-0.2,1.8-0.4
			s1-0.3,1.3-0.5l1,3c-0.5,0.4-1.2,0.7-2.1,1s-1.8,0.6-2.9,0.8C4082,4661.7,4081,4661.9,4080,4661.9z"/>
		<path class="st3" d="M4098.7,4661.9l-8.8-25.8h6l4.5,14.7l2.1,8.2h-1.6l2-8.2l4.7-14.8h5.9l4.7,14.7l2,8.1h-1.5l2-8l4.3-14.9h5.8
			l-8.8,25.8h-5.5l-5.1-16.1l-1.6-6.8h1.2l-1.7,6.8l-5,16.1h-5.6V4661.9z"/>
		<path class="st3" d="M4142.6,4661.9c-1.7,0-3.3-0.3-4.6-0.9c-1.3-0.6-2.4-1.5-3.2-2.6c-0.8-1.1-1.2-2.4-1.2-3.9
			c0-1.6,0.5-3,1.5-4.1c1-1.1,2.3-2,4-2.7c1.1-0.4,2.3-0.7,3.6-0.9c1.3-0.2,2.6-0.4,3.9-0.5s2.5-0.1,3.6-0.1l1.2,1.4l-1.2,1.8
			c-0.7,0-1.5,0-2.4,0.1c-0.9,0.1-1.9,0.2-2.8,0.4c-0.9,0.2-1.7,0.4-2.3,0.7c-0.9,0.4-1.6,0.8-2.2,1.3s-0.9,1.3-0.9,2.3
			c0,1.3,0.4,2.2,1.2,2.9c0.8,0.7,2,1,3.6,1c0.8,0,1.6-0.1,2.5-0.3c0.8-0.2,1.6-0.5,2.2-0.7c0.6-0.3,1-0.5,1.2-0.7l1.2,1.1l-0.9,2
			c-0.8,0.6-1.9,1.2-3.3,1.7C4145.9,4661.7,4144.3,4661.9,4142.6,4661.9z M4156.3,4661.6h-5.7v-3.8h-0.3v-14c0-1.5-0.4-2.5-1.3-3
			s-2.2-0.7-3.8-0.7c-1.1,0-2.2,0.1-3.4,0.3c-1.2,0.2-2.2,0.4-3.2,0.7c-1,0.3-1.7,0.6-2.2,0.9l-1.4-3.8c0.4-0.2,1.2-0.5,2.3-0.9
			c1.1-0.4,2.5-0.7,4-1c1.5-0.3,3-0.5,4.5-0.5c2.2,0,4,0.2,5.6,0.7c1.6,0.4,2.8,1.3,3.7,2.5c0.9,1.2,1.3,2.9,1.3,5.2v17.4H4156.3z"
			/>
		<path class="st3" d="M4164.2,4661.6v-25.4h5.1l0.4,3.2l0.5,1.9v20.2h-6V4661.6z M4169.9,4642.9l-0.4-3.5c0.3-0.5,0.8-1,1.6-1.6
			c0.8-0.6,1.8-1.1,2.9-1.5s2.3-0.6,3.5-0.6c0.7,0,1.2,0,1.7,0.1s0.8,0.1,1,0.3v4.9c-0.3-0.1-0.7-0.3-1.2-0.4s-1.4-0.2-2.6-0.2
			c-1.1,0-2,0.1-2.9,0.4c-0.9,0.3-1.6,0.6-2.2,1C4170.8,4642.2,4170.3,4642.6,4169.9,4642.9z"/>
		<path class="st3" d="M4196.7,4661.9c-4.1,0-7.3-1.2-9.6-3.5c-2.3-2.3-3.4-5.5-3.4-9.6c0-2.5,0.5-4.7,1.5-6.6s2.5-3.5,4.4-4.6
			c1.9-1.1,4.3-1.7,7.2-1.8c1.5,0,2.8,0.2,4.1,0.5s2.4,1,3.4,1.8c1,0.8,1.8,1.8,2.3,3c0.5,1.2,0.9,2.6,0.9,4.3c0,1,0,1.8,0,2.6
			c0,0.8-0.1,1.4-0.2,2h-20.1l0.5-3.3h14.3c0.1-1.2,0-2.4-0.2-3.5c-0.3-1.1-0.8-2-1.6-2.6c-0.8-0.7-2-1-3.6-1c-1.3,0-2.6,0.3-3.6,1
			c-1.1,0.7-1.9,1.8-2.5,3.3c-0.6,1.6-0.8,3.7-0.7,6.4c0.1,1.9,0.5,3.4,1.3,4.5c0.8,1.1,1.8,1.9,3.1,2.4s2.7,0.7,4.2,0.7
			c0.7,0,1.5-0.1,2.4-0.2c1-0.1,1.9-0.3,2.8-0.5c0.9-0.2,1.6-0.4,2-0.7l1.1,3c-0.6,0.5-1.5,0.9-2.6,1.2c-1.1,0.4-2.3,0.6-3.6,0.8
			C4199.2,4661.7,4197.9,4661.9,4196.7,4661.9z"/>
		<path class="st3" d="M4223.7,4672.8v-36.6h5.4v3.1l0.5,0.5v19.7l-0.1,1l0.1,4.2v8.2h-5.9V4672.8z M4234.3,4661.9
			c-1.8,0-3.3-0.2-4.5-0.6c-1.2-0.4-2-0.7-2.3-1l2.1-3.4c0.6,0.4,1.2,0.7,2.1,0.9c0.8,0.2,1.8,0.3,3,0.3c1.5,0,2.8-0.4,4-1.1
			c1.2-0.7,2.1-1.8,2.8-3.2s1.1-3.2,1.1-5.2c0-3-0.6-5.2-1.8-6.6c-1.2-1.4-3-2.1-5.2-2.1c-1.3,0-2.5,0.2-3.6,0.7s-1.9,0.9-2.5,1.3
			l-0.9-2.6c0.4-0.4,0.9-0.8,1.6-1.4c0.7-0.5,1.6-1,2.7-1.4c1.1-0.4,2.6-0.6,4.3-0.6c2,0,3.9,0.4,5.7,1.3c1.7,0.9,3.1,2.2,4.2,4
			c1.1,1.8,1.6,4,1.6,6.8c0,2.8-0.6,5.2-1.8,7.3c-1.2,2.1-2.9,3.8-5.1,4.9S4237.2,4661.9,4234.3,4661.9z"/>
		<path class="st3" d="M4255.1,4661.6v-25.4h5.1l0.4,3.2l0.5,1.9v20.2h-6V4661.6z M4260.8,4642.9l-0.4-3.5c0.3-0.5,0.8-1,1.6-1.6
			s1.8-1.1,2.9-1.5s2.3-0.6,3.5-0.6c0.7,0,1.2,0,1.7,0.1s0.8,0.1,1,0.3v4.9c-0.3-0.1-0.7-0.3-1.2-0.4s-1.4-0.2-2.6-0.2
			c-1.1,0-2,0.1-2.9,0.4c-0.9,0.3-1.6,0.6-2.2,1C4261.7,4642.2,4261.2,4642.6,4260.8,4642.9z"/>
		<path class="st3" d="M4287.4,4661.9c-2.4,0-4.3-0.4-6-1.1c-1.6-0.7-3-1.7-4-3c-1-1.3-1.8-2.7-2.2-4.3c-0.4-1.6-0.7-3.4-0.7-5.2
			c0.1-2.7,0.7-5,1.8-6.9c1.2-1.9,2.8-3.3,4.8-4.2s4.3-1.4,6.8-1.4c3.1,0,5.7,0.6,7.6,1.9c1.9,1.3,3.3,2.9,4.1,5
			c0.8,2.1,1.2,4.3,1.2,6.7c-0.1,2.7-0.7,5-1.8,6.9c-1.2,1.9-2.7,3.3-4.7,4.2C4292.2,4661.4,4289.9,4661.9,4287.4,4661.9z
			 M4287.5,4658.2c2.4,0,4.2-0.8,5.4-2.4c1.2-1.6,1.8-3.8,1.8-6.7c0-1.8-0.2-3.4-0.7-4.8s-1.2-2.6-2.3-3.5c-1-0.9-2.3-1.3-4-1.3
			c-2.4,0-4.1,0.7-5.3,2.2c-1.2,1.5-1.8,3.7-1.8,6.6c0,1.8,0.2,3.4,0.7,4.9s1.2,2.7,2.3,3.6
			C4284.6,4657.7,4285.9,4658.2,4287.5,4658.2z"/>
		<path class="st3" d="M4318,4673.1c-3.8,0-6.8-0.6-9-1.8c-2.2-1.2-3.3-3.1-3.3-5.6c0-0.9,0.3-1.8,0.8-2.5s1.2-1.4,1.9-1.9
			c0.8-0.5,1.5-0.9,2.2-1.1l3.8,0.5c-0.4,0.3-0.8,0.6-1.2,0.9c-0.5,0.3-0.8,0.7-1.2,1.3c-0.3,0.5-0.5,1.2-0.5,2.1
			c0,1,0.2,1.9,0.7,2.6c0.5,0.7,1.2,1.2,2.1,1.6c1,0.4,2.3,0.6,3.9,0.6c1.5,0,2.9-0.1,4.1-0.4c1.2-0.3,2.3-0.7,3-1.3
			c0.8-0.6,1.1-1.3,1.1-2.1c0-0.9-0.2-1.7-0.6-2.3c-0.4-0.6-1.1-1.1-2.1-1.4c-1-0.3-2.5-0.5-4.4-0.5h-2.9c-1,0-1.9,0-2.6-0.1
			c-0.7-0.1-1.4-0.1-2-0.3c-0.2,0-0.4-0.1-0.6-0.2c-0.2-0.1-0.4-0.2-0.6-0.3c-1.3-0.4-2.2-1-2.6-1.8c-0.4-0.8-0.7-1.6-0.7-2.3
			c0-0.6,0.2-1.2,0.5-1.8c0.4-0.6,0.9-1.2,1.5-1.8s1.4-1.1,2.3-1.5l3.7,0.8c-0.6,0.2-1.2,0.6-1.7,1.1s-0.8,1.1-0.8,1.7
			c0,0.9,0.3,1.6,0.8,1.9c0.5,0.3,1.4,0.5,2.6,0.5h5.2c2.2,0,4,0.2,5.4,0.6s2.5,1,3.2,1.7c0.8,0.7,1.3,1.5,1.6,2.3
			c0.3,0.8,0.4,1.7,0.4,2.6c0,1.3-0.4,2.5-1.1,3.5c-0.7,1-1.8,1.9-3.1,2.7c-1.3,0.7-2.8,1.3-4.5,1.7
			C4321.7,4672.9,4319.9,4673.1,4318,4673.1z M4317.8,4652.9c-2.2,0-4.1-0.4-5.8-1.1c-1.7-0.7-3.1-1.7-4.1-2.9
			c-1-1.3-1.5-2.7-1.5-4.3c0-2,0.5-3.6,1.5-4.9s2.4-2.2,4.1-2.9c1.7-0.7,3.7-1,5.9-1c2.1,0,4.1,0.2,5.9,0.8c1.8,0.6,3.2,1.5,4.3,2.8
			c1.1,1.3,1.6,2.9,1.6,4.8s-0.5,3.4-1.5,4.7c-1,1.3-2.4,2.3-4.2,2.9S4320.1,4652.9,4317.8,4652.9z M4317.9,4649.5
			c1.8,0,3.2-0.4,4.3-1.1c1.1-0.7,1.6-2,1.6-4c0-1.7-0.5-2.9-1.4-3.8s-2.3-1.3-4.2-1.3c-1.1,0-2.1,0.1-3,0.4
			c-0.9,0.3-1.7,0.8-2.2,1.5c-0.6,0.7-0.8,1.8-0.8,3.1c0,1.4,0.5,2.6,1.4,3.6C4314.5,4649,4315.9,4649.5,4317.9,4649.5z
			 M4326.4,4640.1l-1.6-2.1c0.4-0.4,1.1-0.9,2.3-1.3c1.1-0.5,2.4-0.7,3.7-0.7h2.9v4.1H4326.4z"/>
		<path class="st3" d="M4338.3,4661.6v-25.4h5.1l0.4,3.2l0.5,1.9v20.2h-6V4661.6z M4344,4642.9l-0.4-3.5c0.3-0.5,0.8-1,1.6-1.6
			c0.8-0.6,1.8-1.1,2.9-1.5s2.3-0.6,3.5-0.6c0.7,0,1.2,0,1.7,0.1s0.8,0.1,1,0.3v4.9c-0.3-0.1-0.7-0.3-1.2-0.4s-1.4-0.2-2.6-0.2
			c-1.1,0-2,0.1-2.9,0.4c-0.9,0.3-1.6,0.6-2.2,1C4344.9,4642.2,4344.4,4642.6,4344,4642.9z"/>
		<path class="st3" d="M4366.6,4661.9c-1.7,0-3.3-0.3-4.6-0.9c-1.3-0.6-2.4-1.5-3.2-2.6c-0.8-1.1-1.2-2.4-1.2-3.9
			c0-1.6,0.5-3,1.5-4.1c1-1.1,2.3-2,4-2.7c1.1-0.4,2.3-0.7,3.6-0.9c1.3-0.2,2.6-0.4,3.9-0.5s2.5-0.1,3.6-0.1l1.2,1.4l-1.2,1.8
			c-0.7,0-1.5,0-2.4,0.1c-0.9,0.1-1.9,0.2-2.8,0.4c-0.9,0.2-1.7,0.4-2.3,0.7c-0.9,0.4-1.6,0.8-2.2,1.3s-0.9,1.3-0.9,2.3
			c0,1.3,0.4,2.2,1.2,2.9c0.8,0.7,2,1,3.6,1c0.8,0,1.6-0.1,2.5-0.3c0.8-0.2,1.6-0.5,2.2-0.7c0.6-0.3,1-0.5,1.2-0.7l1.2,1.1l-0.9,2
			c-0.8,0.6-1.9,1.2-3.3,1.7C4369.9,4661.7,4368.3,4661.9,4366.6,4661.9z M4380.2,4661.6h-5.7v-3.8h-0.3v-14c0-1.5-0.4-2.5-1.3-3
			s-2.2-0.7-3.8-0.7c-1.1,0-2.2,0.1-3.4,0.3c-1.2,0.2-2.2,0.4-3.2,0.7c-1,0.3-1.7,0.6-2.2,0.9l-1.4-3.8c0.4-0.2,1.2-0.5,2.3-0.9
			c1.1-0.4,2.5-0.7,4-1c1.5-0.3,3-0.5,4.5-0.5c2.2,0,4,0.2,5.6,0.7c1.6,0.4,2.8,1.3,3.7,2.5c0.9,1.2,1.3,2.9,1.3,5.2L4380.2,4661.6
			L4380.2,4661.6z"/>
		<path class="st3" d="M4388.7,4661.6v-25.4h5.4v2.7c0.7-0.4,1.6-0.9,2.7-1.3c1.1-0.5,2.2-0.9,3.5-1.2c1.2-0.3,2.5-0.5,3.7-0.5
			c2.1-0.1,3.7,0.2,5,0.8c1.3,0.6,2.2,1.7,2.8,3.1c0.6,1.5,0.9,3.4,0.9,5.9v15.9h-6V4646c0-1.4-0.1-2.5-0.4-3.4s-0.8-1.5-1.5-1.9
			s-1.8-0.6-3.2-0.5c-0.9,0-2,0.2-3.3,0.6s-2.5,0.9-3.6,1.7v19.1H4388.7L4388.7,4661.6z M4412.3,4642.5l-1.3-3.3
			c0.7-0.5,1.6-1,2.7-1.5c1.1-0.5,2.3-0.9,3.7-1.3c1.3-0.4,2.7-0.5,4.1-0.6c2.1,0,3.7,0.3,5,0.9s2.3,1.6,2.9,3.1s0.9,3.4,0.9,5.9
			v15.9h-6V4646c0-1.4-0.1-2.5-0.4-3.4c-0.3-0.9-0.7-1.5-1.5-1.9c-0.7-0.4-1.8-0.6-3.2-0.5c-1,0-2.1,0.2-3.4,0.7
			C4414.5,4641.3,4413.3,4641.8,4412.3,4642.5z"/>
		<path class="st3" d="M4439,4661.6v-25.4h5.4v2.7c0.7-0.4,1.6-0.9,2.7-1.3c1.1-0.5,2.2-0.9,3.5-1.2c1.2-0.3,2.5-0.5,3.7-0.5
			c2.1-0.1,3.7,0.2,5,0.8s2.2,1.7,2.8,3.1c0.6,1.5,0.9,3.4,0.9,5.9v15.9h-6V4646c0-1.4-0.1-2.5-0.4-3.4s-0.8-1.5-1.5-1.9
			c-0.7-0.4-1.8-0.6-3.2-0.5c-0.9,0-2,0.2-3.3,0.6c-1.3,0.4-2.5,0.9-3.6,1.7v19.1H4439L4439,4661.6z M4462.5,4642.5l-1.3-3.3
			c0.7-0.5,1.6-1,2.7-1.5s2.3-0.9,3.7-1.3c1.3-0.4,2.7-0.5,4.1-0.6c2.1,0,3.7,0.3,5,0.9c1.3,0.6,2.3,1.6,2.9,3.1
			c0.6,1.5,0.9,3.4,0.9,5.9v15.9h-6V4646c0-1.4-0.1-2.5-0.4-3.4s-0.7-1.5-1.5-1.9c-0.7-0.4-1.8-0.6-3.2-0.5c-1,0-2.1,0.2-3.4,0.7
			C4464.8,4641.3,4463.6,4641.8,4462.5,4642.5z"/>
		<path class="st3" d="M4500.3,4661.9c-4.1,0-7.3-1.2-9.6-3.5c-2.3-2.3-3.4-5.5-3.4-9.6c0-2.5,0.5-4.7,1.5-6.6s2.5-3.5,4.4-4.6
			c1.9-1.1,4.3-1.7,7.2-1.8c1.5,0,2.8,0.2,4.1,0.5s2.4,1,3.4,1.8c1,0.8,1.8,1.8,2.3,3c0.5,1.2,0.9,2.6,0.9,4.3c0,1,0,1.8,0,2.6
			c0,0.8-0.1,1.4-0.2,2h-20.1l0.5-3.3h14.3c0.1-1.2,0-2.4-0.2-3.5c-0.3-1.1-0.8-2-1.6-2.6c-0.8-0.7-2-1-3.6-1c-1.3,0-2.6,0.3-3.6,1
			c-1.1,0.7-1.9,1.8-2.5,3.3c-0.6,1.6-0.8,3.7-0.7,6.4c0.1,1.9,0.5,3.4,1.3,4.5s1.8,1.9,3.1,2.4s2.7,0.7,4.2,0.7
			c0.7,0,1.5-0.1,2.4-0.2c1-0.1,1.9-0.3,2.8-0.5c0.9-0.2,1.6-0.4,2-0.7l1.1,3c-0.6,0.5-1.5,0.9-2.6,1.2c-1.1,0.4-2.3,0.6-3.6,0.8
			C4502.8,4661.7,4501.5,4661.9,4500.3,4661.9z"/>
		<path class="st3" d="M4517.6,4661.6v-25.4h5.1l0.4,3.2l0.5,1.9v20.2h-6V4661.6z M4523.3,4642.9l-0.4-3.5c0.3-0.5,0.8-1,1.6-1.6
			c0.8-0.6,1.8-1.1,2.9-1.5c1.1-0.4,2.3-0.6,3.5-0.6c0.7,0,1.2,0,1.7,0.1s0.8,0.1,1,0.3v4.9c-0.3-0.1-0.7-0.3-1.2-0.4
			s-1.4-0.2-2.6-0.2c-1.1,0-2,0.1-2.9,0.4c-0.9,0.3-1.6,0.6-2.2,1C4524.2,4642.2,4523.7,4642.6,4523.3,4642.9z"/>
	</g>
</g>
<g>
	<path class="st3" d="M2400.9,5620.7c-17.7,0-31.4-4.9-41-14.8c-9.6-9.9-14.4-23.6-14.4-41.2c0-10.5,2.1-20,6.4-28.3
		c4.2-8.3,10.5-14.9,18.8-19.8s18.5-7.4,30.7-7.5c6.2-0.1,12,0.7,17.5,2.3c5.5,1.7,10.3,4.2,14.5,7.7c4.2,3.5,7.6,7.7,10,12.9
		c2.5,5.2,3.8,11.3,4,18.2c0,4.1,0,7.8-0.1,11c-0.1,3.2-0.4,6.1-1,8.5h-86l2.2-14.2h61c0.4-5.2,0-10.1-1.1-14.8
		c-1.1-4.6-3.4-8.4-6.9-11.3c-3.5-2.9-8.7-4.3-15.6-4.3c-5.8,0-10.9,1.4-15.5,4.2c-4.6,2.8-8.1,7.6-10.6,14.3
		c-2.5,6.7-3.5,15.9-3.1,27.5c0.4,8.2,2.3,14.7,5.7,19.4c3.3,4.7,7.7,8.1,13.1,10.1s11.4,3,18.1,3c2.8,0,6.2-0.3,10.3-0.8
		c4.1-0.6,8-1.3,11.8-2.1c3.8-0.9,6.7-1.8,8.7-2.9l4.9,12.9c-2.7,2-6.4,3.7-11.1,5.2s-9.8,2.7-15.2,3.5
		C2411.4,5620.3,2406.1,5620.7,2400.9,5620.7z"/>
</g>
<g>
	<g>
		<g>
			<polygon class="st1" points="3649.3,4639.3 3612.2,4602.3 3649.3,4565.2 3664.1,4580 3686.3,4580 3649.3,4543 3590,4602.3 
				3649.3,4661.6 3686.3,4624.5 3664.1,4624.5 			"/>
			<polygon class="st2" points="4557,4602.3 4549.2,4594.4 4549.2,4594.4 4549.2,4594.4 3643.1,4594.4 3635.3,4602.3 3643.1,4610.1 
				3643.1,4610.1 3643.1,4610.1 4549.2,4610.1 			"/>
		</g>
		<g>
			<path class="st3" d="M3718.1,4440.6c7.4-4.6,16.1-6.9,26-6.9c7.6,0,13.8,0.5,18.7,1.6c4.8,1,8.6,2.2,11.3,3.4
				c2.7,1.2,4.6,2.2,5.7,2.8l3.5-21.1c-2.1-0.5-4.8-1.1-8.2-2c-3.4-0.9-7.7-1.7-13-2.5c-5.3-0.8-11.8-1.2-19.5-1.2
				c-9.6,0-18.7,1.7-27.4,5.1s-16.4,8.3-23.1,14.9c-6.7,6.6-12,14.7-15.8,24.2c-3.8,9.6-5.8,20.6-5.8,33c0,15.2,3,28.4,9,39.8
				s14.5,20.3,25.4,26.7c10.9,6.4,23.7,9.5,38.4,9.5c6.4,0,11.9-0.4,16.5-1.3c4.7-0.8,8.8-1.9,12.4-3.1c3.6-1.2,6.9-2.4,9.8-3.5v-20
				c-1.8,1.5-4.7,2.9-8.7,4.3s-8.5,2.6-13.6,3.5c-5.1,0.9-10.2,1.4-15.3,1.4c-10.3,0-19.2-2.5-26.6-7.6c-7.5-5.1-13.2-12-17.1-20.9
				c-4-8.9-6-19-6-30.5c0-11.6,2-21.7,6.1-30.3C3705,4451.8,3710.7,4445.2,3718.1,4440.6z"/>
			<path class="st3" d="M3886.9,4460.8c-7.6-5.6-17.6-8.3-30.2-8.3c-10,0-19,2.1-27,6.3c-8,4.2-14.4,10.4-19.1,18.6
				c-4.7,8.2-7.2,18.3-7.4,30.4c-0.1,8,0.8,15.6,2.6,22.9c1.8,7.2,4.8,13.7,8.9,19.2c4.1,5.6,9.4,10,16,13.2
				c6.6,3.2,14.5,4.8,23.9,4.8c10.2,0,19.2-2.1,27.2-6.4c8-4.2,14.3-10.5,19-18.7c4.7-8.2,7.1-18.4,7.3-30.5
				c0.1-10.6-1.5-20.5-4.8-29.6C3899.9,4473.7,3894.5,4466.4,3886.9,4460.8z M3876.6,4541.1c-4.8,7.1-11.9,10.6-21.4,10.5
				c-6.4-0.1-11.6-2.2-15.6-6.2c-4.1-4-7.1-9.2-9-15.8c-1.9-6.5-2.9-13.7-2.9-21.5c0-12.6,2.4-22.3,7.1-29.1
				c4.8-6.8,11.8-10.1,21.2-9.9c6.4,0.1,11.7,2,15.8,5.9c4.1,3.8,7.1,8.9,9.1,15.3c1.9,6.4,2.9,13.5,2.9,21.3
				C3883.8,4524.1,3881.4,4534,3876.6,4541.1z"/>
			<path class="st3" d="M3996.8,4452.3c-5,0.1-10,0.9-15,2.4s-9.7,3.3-14,5.4s-7.9,4.1-10.7,6l-0.1-11.9h-21.5v112.3h23.8v-84.6
				c3-2.2,6.1-4.1,9.4-5.5c3.3-1.4,6.5-2.6,9.6-3.3c3.1-0.8,5.9-1.2,8.3-1.3c8.6-0.5,14.2,1.3,16.8,5.5c2.6,4.1,3.9,10.9,3.9,20.3
				v69h24v-70.4c0-16.5-2.7-28-8.1-34.6C4018,4455,4009.1,4451.9,3996.8,4452.3z"/>
			<path class="st3" d="M4121.5,4547.3c-2.3,0.7-4.7,1.2-7.3,1.7c-2.5,0.4-4.8,0.7-6.7,0.7c-3.6,0-6.3-0.5-8.1-1.4
				c-1.8-0.9-3.1-3-3.7-6.4c-0.7-3.3-1-8.6-1-15.9v-54.9h32.3v-17.2h-32.3v-25.7h-14.3c-1,3-1.9,5.7-2.7,8.2
				c-0.8,2.5-1.6,4.8-2.3,6.9c-0.7,2.1-1.3,3.8-1.9,5.3c-1.2,3.2-3.2,5.3-5.9,6.3c-2.7,1-6.6,2.2-11.7,3.6v12.5h14.9v67.3
				c0,7.9,1.2,14,3.5,18.2c2.3,4.3,5.5,7.3,9.7,8.9c4.2,1.6,8.9,2.5,14.4,2.5c4.1,0,8.3-0.5,12.5-1.4c4.2-0.9,8-2.1,11.5-3.6
				c3.5-1.4,6.3-2.9,8.3-4.5l-3.9-13.3C4125.6,4545.9,4123.8,4546.6,4121.5,4547.3z"/>
			<path class="st3" d="M4205.2,4452.3c-4.7,0-9.3,0.9-13.8,2.7c-4.5,1.8-8.4,4-11.8,6.5c-2.7,2.1-4.6,4-5.8,5.8l-1.5-13.2H4152
				v112.3h23.8v-83.8c1.4-1.2,3-2.4,5-3.7c2.6-1.7,5.5-3.1,9-4.3c3.4-1.2,7.3-1.8,11.6-1.8c4.7,0,8.1,0.3,10.2,0.9
				c2.1,0.6,3.7,1.2,4.7,1.7v-21.8c-0.9-0.5-2.3-0.9-4.2-1.1C4210,4452.4,4207.8,4452.3,4205.2,4452.3z"/>
			<rect x="4238.3" y="4454.1" class="st3" width="23.8" height="112.3"/>
			<rect x="4238.3" y="4425.1" class="st1" width="23.8" height="16.1"/>
			<polygon class="st3" points="4346.4,4516.4 4338.7,4543.6 4330.3,4516.4 4308.5,4453.9 4282.7,4453.9 4328.1,4568 4348.7,4568 
				4392.9,4453.9 4367.5,4453.9 			"/>
			<path class="st3" d="M4485,4462.8c-3.9-3.5-8.5-6.2-13.6-7.9c-5.1-1.7-10.6-2.6-16.4-2.4c-11.3,0.1-20.9,2.7-28.7,7.8
				c-7.8,5.1-13.6,11.9-17.6,20.5c-4,8.6-6,18.4-6,29.3c0,18.2,4.5,32.4,13.5,42.6c9,10.2,21.8,15.4,38.3,15.4
				c4.8,0,9.8-0.4,14.9-1.3c5.1-0.9,9.9-2.1,14.2-3.6c4.4-1.5,7.9-3.3,10.4-5.4l-4.6-13.3c-1.9,1.1-4.6,2.1-8.1,3
				c-3.6,0.9-7.2,1.7-11,2.2c-3.8,0.6-7,0.9-9.6,0.9c-6.2,0-11.8-1-16.9-3.1c-5-2.1-9.1-5.6-12.2-10.5c-3.1-4.9-4.9-11.6-5.3-20.1
				c0-0.5,0-0.9,0-1.4h70.7c0.6-2.6,0.9-5.5,0.9-8.8c0.1-3.3,0.1-7.1,0.1-11.4c-0.2-7.2-1.5-13.5-3.8-18.9
				C4492.1,4470.8,4489,4466.4,4485,4462.8z M4475.8,4500.5h-48.9c0.5-4.7,1.3-8.9,2.5-12.3c2.3-6.9,5.7-11.9,9.9-14.8
				c4.3-2.9,9.1-4.4,14.5-4.4c6.4,0,11.3,1.5,14.6,4.5c3.3,3,5.4,6.9,6.4,11.7C4475.8,4490.1,4476.2,4495.2,4475.8,4500.5z"/>
			<path class="st3" d="M4584.1,4452.6c-1.9-0.2-4.2-0.3-6.8-0.3c-4.7,0-9.3,0.9-13.8,2.7c-4.5,1.8-8.4,4-11.8,6.5
				c-2.7,2.1-4.6,4-5.8,5.8l-1.5-13.2h-20.3v112.3h23.8v-83.8c1.4-1.2,3-2.4,5-3.7c2.6-1.7,5.5-3.1,9-4.3c3.4-1.2,7.3-1.8,11.6-1.8
				c4.7,0,8.1,0.3,10.2,0.9c2.1,0.6,3.7,1.2,4.7,1.7v-21.8C4587.4,4453.1,4586,4452.8,4584.1,4452.6z"/>
		</g>
	</g>
</g>
<g>
	<g>
		<g>
			<path class="st3" d="M2665.7,5417.4c-1.4,0-2.6-0.2-3.6-0.6s-1.8-1.1-2.4-2c-0.6-1-0.9-2.3-0.9-4.1v-15.2h-3.7v-2.8
				c1.3-0.3,2.3-0.6,2.9-0.8c0.6-0.2,1.2-0.7,1.5-1.4c0.1-0.3,0.3-0.7,0.5-1.2s0.4-1,0.6-1.6c0.2-0.6,0.4-1.2,0.7-1.9h3.6v5.8h8.1
				v3.9h-8.1v12.4c0,1.6,0.1,2.8,0.2,3.6c0.2,0.8,0.5,1.2,0.9,1.4c0.5,0.2,1.1,0.3,2,0.3c0.5,0,1,0,1.7-0.1c0.6-0.1,1.2-0.2,1.8-0.4
				c0.6-0.2,1-0.3,1.3-0.5l1,3c-0.5,0.4-1.2,0.7-2.1,1c-0.9,0.3-1.8,0.6-2.9,0.8C2667.8,5417.3,2666.7,5417.4,2665.7,5417.4z"/>
			<path class="st3" d="M2679.6,5417.1V5380h6v10.4l-0.3,4.6l-0.3-0.6c0.7-0.5,1.6-1,2.6-1.4c1.1-0.5,2.2-0.9,3.5-1.2
				c1.2-0.3,2.5-0.5,3.7-0.5c3.1-0.1,5.4,0.7,6.9,2.3s2.1,4.3,2.1,8v15.5h-6v-15.6c0-2.1-0.4-3.6-1.1-4.5c-0.7-0.9-2.2-1.3-4.3-1.3
				c-0.9,0-2,0.2-3.3,0.6s-2.5,0.9-3.6,1.7v19.1H2679.6z"/>
			<path class="st3" d="M2723.5,5417.4c-4.1,0-7.3-1.2-9.6-3.5c-2.2-2.3-3.4-5.5-3.4-9.6c0-2.5,0.5-4.7,1.5-6.6s2.5-3.5,4.4-4.6
				c1.9-1.1,4.3-1.7,7.2-1.8c1.5,0,2.8,0.2,4.1,0.5c1.3,0.3,2.4,1,3.4,1.8c1,0.8,1.8,1.8,2.3,3c0.6,1.2,0.9,2.6,0.9,4.3
				c0,1,0,1.8,0,2.6c0,0.8-0.1,1.4-0.2,2H2714l0.5-3.3h14.3c0.1-1.2,0-2.4-0.2-3.5c-0.3-1.1-0.8-2-1.6-2.6s-2-1-3.6-1
				c-1.3,0-2.6,0.3-3.6,1c-1.1,0.7-1.9,1.8-2.5,3.3c-0.6,1.6-0.8,3.7-0.7,6.4c0.1,1.9,0.5,3.4,1.3,4.5s1.8,1.9,3.1,2.4
				c1.3,0.5,2.7,0.7,4.2,0.7c0.7,0,1.5-0.1,2.4-0.2c1-0.1,1.9-0.3,2.8-0.5s1.6-0.4,2-0.7l1.1,3c-0.6,0.5-1.5,0.9-2.6,1.2
				c-1.1,0.4-2.3,0.6-3.6,0.8C2726,5417.2,2724.7,5417.4,2723.5,5417.4z"/>
			<path class="st3" d="M2749,5415.6l0.8-3.9c0.3,0.2,0.8,0.4,1.6,0.7c0.8,0.3,1.8,0.5,3,0.8c1.2,0.2,2.3,0.4,3.6,0.4
				c1.7,0,2.9-0.2,3.8-0.8c0.9-0.5,1.3-1.2,1.3-2.2c0-0.7-0.3-1.2-0.8-1.7s-1.2-0.9-2.1-1.4c-0.9-0.5-1.9-0.9-3.1-1.3
				c-1.6-0.6-2.9-1.3-4.1-2s-2.1-1.6-2.8-2.6s-1-2.2-1-3.6c0-1.5,0.5-2.8,1.5-3.8s2.2-1.7,3.8-2.2c1.6-0.5,3.4-0.7,5.3-0.7
				c1.8,0,3.4,0.2,4.8,0.5c1.4,0.3,2.3,0.6,2.7,0.8l-0.9,4c-0.3-0.2-0.8-0.5-1.4-0.7c-0.6-0.2-1.4-0.4-2.2-0.5
				c-0.8-0.1-1.7-0.2-2.6-0.2c-1.8,0-3.1,0.2-4,0.7c-0.9,0.4-1.4,1.1-1.4,1.9c0,1.1,0.4,1.9,1.3,2.5c0.9,0.5,2,1.1,3.2,1.6
				c1.8,0.8,3.4,1.5,4.8,2.2c1.4,0.7,2.6,1.6,3.4,2.5c0.8,1,1.3,2.1,1.3,3.5c0,2.4-0.9,4.2-2.8,5.4c-1.9,1.2-4.4,1.8-7.6,1.8
				c-1.3,0-2.6-0.1-3.9-0.3c-1.3-0.2-2.4-0.4-3.3-0.7C2750.2,5416.2,2749.5,5415.9,2749,5415.6z"/>
			<path class="st3" d="M2786.5,5417.4c-2.4,0-4.3-0.4-6-1.1c-1.6-0.7-3-1.7-4-3c-1-1.3-1.8-2.7-2.2-4.3c-0.5-1.6-0.7-3.4-0.7-5.2
				c0.1-2.7,0.7-5,1.8-6.9c1.2-1.9,2.8-3.3,4.8-4.2c2-1,4.3-1.4,6.8-1.4c3.1,0,5.7,0.6,7.6,1.9c1.9,1.3,3.3,2.9,4.1,5
				s1.2,4.3,1.2,6.7c-0.1,2.7-0.7,5-1.8,6.9c-1.2,1.9-2.7,3.3-4.7,4.2C2791.4,5416.9,2789,5417.4,2786.5,5417.4z M2786.6,5413.7
				c2.4,0,4.2-0.8,5.4-2.4s1.8-3.8,1.8-6.7c0-1.8-0.2-3.4-0.7-4.8s-1.2-2.6-2.3-3.5c-1-0.9-2.3-1.3-4-1.3c-2.4,0-4.1,0.7-5.3,2.2
				s-1.8,3.7-1.8,6.6c0,1.8,0.2,3.4,0.7,4.9s1.2,2.7,2.3,3.6C2783.7,5413.2,2785,5413.7,2786.6,5413.7z"/>
			<path class="st3" d="M2808.5,5417.1v-21.5h-4.3v-2.9l4.3-1v-2.2c0-1.9,0.3-3.5,1-4.7c0.6-1.3,1.5-2.3,2.5-3
				c1-0.7,2.2-1.3,3.4-1.6c1.2-0.3,2.4-0.5,3.6-0.5c0.8,0,1.6,0.1,2.4,0.2c0.8,0.1,1.2,0.2,1.5,0.3v4.1c-0.5-0.1-1.1-0.2-1.7-0.3
				c-0.6-0.1-1.5-0.1-2.6-0.1c-1.2,0-2.2,0.4-2.9,1.2c-0.8,0.8-1.2,2-1.2,3.6v3.1h7v3.9h-7v21.5h-6V5417.1z"/>
			<path class="st3" d="M2835.5,5417.4c-1.4,0-2.6-0.2-3.6-0.6s-1.8-1.1-2.4-2c-0.6-1-0.9-2.3-0.9-4.1v-15.2h-3.7v-2.8
				c1.3-0.3,2.3-0.6,2.9-0.8c0.7-0.2,1.2-0.7,1.5-1.4c0.1-0.3,0.3-0.7,0.5-1.2s0.4-1,0.6-1.6c0.2-0.6,0.4-1.2,0.7-1.9h3.6v5.8h8.1
				v3.9h-8.1v12.4c0,1.6,0.1,2.8,0.2,3.6c0.2,0.8,0.5,1.2,0.9,1.4c0.5,0.2,1.1,0.3,2,0.3c0.5,0,1,0,1.7-0.1c0.6-0.1,1.2-0.2,1.8-0.4
				c0.6-0.2,1-0.3,1.3-0.5l1,3c-0.5,0.4-1.2,0.7-2.1,1s-1.8,0.6-2.9,0.8C2837.6,5417.3,2836.5,5417.4,2835.5,5417.4z"/>
			<path class="st3" d="M2854.3,5417.4l-8.8-25.8h6l4.5,14.7l2.1,8.2h-1.6l2-8.2l4.7-14.8h5.9l4.7,14.7l2,8.1h-1.5l2-8l4.3-14.9h5.8
				l-8.8,25.8h-5.5l-5.1-16.1l-1.6-6.8h1.2l-1.7,6.8l-5,16.1h-5.6V5417.4z"/>
			<path class="st3" d="M2898.1,5417.4c-1.7,0-3.3-0.3-4.6-0.9c-1.3-0.6-2.4-1.5-3.2-2.6c-0.8-1.1-1.2-2.4-1.2-3.9
				c0-1.6,0.5-3,1.5-4.1c1-1.1,2.3-2,4-2.7c1.1-0.4,2.3-0.7,3.6-0.9c1.3-0.2,2.6-0.4,3.9-0.5c1.3-0.1,2.5-0.1,3.6-0.1l1.2,1.4
				l-1.2,1.8c-0.7,0-1.5,0-2.4,0.1c-0.9,0.1-1.9,0.2-2.8,0.4c-0.9,0.2-1.7,0.4-2.3,0.7c-0.9,0.4-1.6,0.8-2.2,1.3s-0.9,1.3-0.9,2.3
				c0,1.3,0.4,2.2,1.2,2.9c0.8,0.7,2,1,3.6,1c0.8,0,1.6-0.1,2.5-0.3c0.9-0.2,1.6-0.5,2.2-0.7c0.6-0.3,1-0.5,1.2-0.7l1.2,1.1l-0.9,2
				c-0.8,0.6-1.9,1.2-3.3,1.7C2901.4,5417.2,2899.9,5417.4,2898.1,5417.4z M2911.8,5417.1h-5.7v-3.8h-0.3v-14c0-1.5-0.4-2.5-1.3-3
				s-2.2-0.7-3.8-0.7c-1.1,0-2.2,0.1-3.4,0.3c-1.2,0.2-2.2,0.4-3.2,0.7c-1,0.3-1.7,0.6-2.2,0.9l-1.4-3.8c0.4-0.2,1.2-0.5,2.3-0.9
				c1.1-0.4,2.5-0.7,4-1c1.5-0.3,3-0.5,4.5-0.5c2.2,0,4,0.2,5.6,0.7c1.6,0.4,2.8,1.3,3.7,2.5c0.9,1.2,1.3,2.9,1.3,5.2L2911.8,5417.1
				L2911.8,5417.1z"/>
			<path class="st3" d="M2919.8,5417.1v-25.4h5.1l0.4,3.2l0.5,1.9v20.2h-6V5417.1z M2925.4,5398.4l-0.4-3.5c0.3-0.5,0.8-1,1.6-1.6
				c0.8-0.6,1.8-1.1,2.9-1.5s2.3-0.6,3.5-0.6c0.7,0,1.2,0,1.7,0.1c0.5,0,0.8,0.1,1,0.3v4.9c-0.3-0.1-0.7-0.3-1.2-0.4
				s-1.4-0.2-2.6-0.2c-1.1,0-2,0.1-2.9,0.4c-0.9,0.3-1.6,0.6-2.2,1C2926.3,5397.7,2925.8,5398.1,2925.4,5398.4z"/>
			<path class="st3" d="M2952.2,5417.4c-4.1,0-7.3-1.2-9.6-3.5c-2.2-2.3-3.4-5.5-3.4-9.6c0-2.5,0.5-4.7,1.5-6.6s2.5-3.5,4.4-4.6
				c1.9-1.1,4.3-1.7,7.2-1.8c1.5,0,2.8,0.2,4.1,0.5c1.3,0.3,2.4,1,3.4,1.8c1,0.8,1.8,1.8,2.3,3c0.6,1.2,0.9,2.6,0.9,4.3
				c0,1,0,1.8,0,2.6c0,0.8-0.1,1.4-0.2,2h-20.1l0.5-3.3h14.3c0.1-1.2,0-2.4-0.2-3.5c-0.3-1.1-0.8-2-1.6-2.6s-2-1-3.6-1
				c-1.3,0-2.6,0.3-3.6,1c-1.1,0.7-1.9,1.8-2.5,3.3c-0.6,1.6-0.8,3.7-0.7,6.4c0.1,1.9,0.5,3.4,1.3,4.5c0.8,1.1,1.8,1.9,3.1,2.4
				s2.7,0.7,4.2,0.7c0.7,0,1.5-0.1,2.4-0.2c1-0.1,1.9-0.3,2.8-0.5s1.6-0.4,2-0.7l1.1,3c-0.6,0.5-1.5,0.9-2.6,1.2
				c-1.1,0.4-2.3,0.6-3.6,0.8C2954.7,5417.2,2953.4,5417.4,2952.2,5417.4z"/>
			<path class="st3" d="M2979.2,5428.3v-36.7h5.4v3.1l0.5,0.5v19.7l-0.1,1l0.1,4.2v8.2H2979.2z M2989.9,5417.4
				c-1.8,0-3.3-0.2-4.5-0.6c-1.2-0.4-2-0.7-2.3-1l2.1-3.4c0.6,0.4,1.2,0.7,2.1,0.9c0.9,0.2,1.8,0.3,3,0.3c1.5,0,2.8-0.4,4-1.1
				c1.2-0.7,2.1-1.8,2.8-3.2c0.7-1.4,1.1-3.2,1.1-5.2c0-3-0.6-5.2-1.8-6.6c-1.2-1.4-3-2.1-5.2-2.1c-1.3,0-2.5,0.2-3.6,0.7
				c-1,0.4-1.9,0.9-2.5,1.3l-0.9-2.6c0.4-0.4,0.9-0.8,1.6-1.4c0.7-0.5,1.6-1,2.7-1.4c1.1-0.4,2.6-0.6,4.3-0.6c2,0,3.9,0.4,5.7,1.3
				c1.7,0.9,3.1,2.2,4.2,4c1.1,1.8,1.6,4,1.6,6.8c0,2.8-0.6,5.2-1.8,7.3c-1.2,2.1-2.9,3.8-5.1,4.9
				C2995.3,5416.8,2992.8,5417.4,2989.9,5417.4z"/>
			<path class="st3" d="M3010.7,5417.1v-25.4h5.1l0.4,3.2l0.5,1.9v20.2h-6V5417.1z M3016.3,5398.4l-0.4-3.5c0.3-0.5,0.8-1,1.6-1.6
				c0.8-0.6,1.8-1.1,2.9-1.5s2.3-0.6,3.5-0.6c0.7,0,1.2,0,1.7,0.1c0.5,0,0.8,0.1,1,0.3v4.9c-0.3-0.1-0.7-0.3-1.2-0.4
				s-1.4-0.2-2.6-0.2c-1.1,0-2,0.1-2.9,0.4c-0.9,0.3-1.6,0.6-2.2,1C3017.2,5397.7,3016.7,5398.1,3016.3,5398.4z"/>
			<path class="st3" d="M3042.9,5417.4c-2.4,0-4.3-0.4-6-1.1c-1.6-0.7-3-1.7-4-3c-1-1.3-1.8-2.7-2.2-4.3c-0.5-1.6-0.7-3.4-0.7-5.2
				c0.1-2.7,0.7-5,1.8-6.9c1.2-1.9,2.8-3.3,4.8-4.2c2-1,4.3-1.4,6.8-1.4c3.1,0,5.7,0.6,7.6,1.9s3.3,2.9,4.1,5s1.2,4.3,1.2,6.7
				c-0.1,2.7-0.7,5-1.8,6.9c-1.2,1.9-2.7,3.3-4.7,4.2C3047.8,5416.9,3045.5,5417.4,3042.9,5417.4z M3043.1,5413.7
				c2.4,0,4.2-0.8,5.4-2.4s1.8-3.8,1.8-6.7c0-1.8-0.2-3.4-0.7-4.8s-1.2-2.6-2.3-3.5c-1-0.9-2.3-1.3-4-1.3c-2.4,0-4.1,0.7-5.3,2.2
				s-1.8,3.7-1.8,6.6c0,1.8,0.2,3.4,0.7,4.9s1.2,2.7,2.3,3.6C3040.2,5413.2,3041.5,5413.7,3043.1,5413.7z"/>
			<path class="st3" d="M3073.5,5428.6c-3.8,0-6.8-0.6-9-1.8c-2.2-1.2-3.3-3.1-3.3-5.6c0-0.9,0.3-1.8,0.8-2.5s1.2-1.4,1.9-1.9
				c0.8-0.5,1.5-0.9,2.2-1.1l3.8,0.5c-0.4,0.3-0.8,0.6-1.2,0.9c-0.4,0.3-0.8,0.7-1.2,1.3c-0.4,0.6-0.5,1.2-0.5,2.1
				c0,1,0.2,1.9,0.7,2.6c0.5,0.7,1.2,1.2,2.1,1.6c1,0.4,2.3,0.6,3.9,0.6c1.5,0,2.9-0.1,4.1-0.4c1.2-0.3,2.3-0.7,3-1.3
				c0.8-0.6,1.1-1.3,1.1-2.1c0-0.9-0.2-1.7-0.6-2.3c-0.4-0.6-1.1-1.1-2.1-1.4c-1-0.3-2.5-0.5-4.4-0.5h-2.9c-1,0-1.9,0-2.6-0.1
				c-0.8,0-1.4-0.1-2-0.3c-0.2,0-0.4-0.1-0.6-0.2s-0.4-0.2-0.6-0.3c-1.3-0.4-2.2-1-2.6-1.8c-0.4-0.8-0.7-1.6-0.7-2.3
				c0-0.6,0.2-1.2,0.5-1.8c0.4-0.6,0.9-1.2,1.5-1.8s1.4-1.1,2.3-1.5l3.7,0.8c-0.6,0.2-1.2,0.6-1.7,1.1s-0.8,1.1-0.8,1.7
				c0,0.9,0.3,1.6,0.8,1.9s1.4,0.5,2.6,0.5h5.2c2.2,0,4,0.2,5.4,0.6s2.5,1,3.2,1.7c0.8,0.7,1.3,1.5,1.6,2.3c0.3,0.8,0.4,1.7,0.4,2.6
				c0,1.3-0.4,2.5-1.1,3.5s-1.8,1.9-3.1,2.7c-1.3,0.7-2.8,1.3-4.5,1.7C3077.2,5428.4,3075.4,5428.6,3073.5,5428.6z M3073.3,5408.4
				c-2.2,0-4.1-0.4-5.8-1.1c-1.7-0.7-3.1-1.7-4.1-2.9c-1-1.3-1.5-2.7-1.5-4.3c0-2,0.5-3.6,1.5-4.9s2.4-2.2,4.1-2.9
				c1.7-0.7,3.7-1,5.9-1c2.1,0,4.1,0.2,5.9,0.8s3.2,1.5,4.3,2.8c1.1,1.3,1.6,2.9,1.6,4.8s-0.5,3.4-1.5,4.7c-1,1.3-2.4,2.3-4.2,2.9
				C3077.6,5408.1,3075.6,5408.4,3073.3,5408.4z M3073.5,5405c1.8,0,3.2-0.4,4.3-1.1c1.1-0.7,1.6-2,1.6-4c0-1.7-0.5-2.9-1.4-3.8
				c-0.9-0.9-2.3-1.3-4.2-1.3c-1.1,0-2.1,0.1-3,0.4c-0.9,0.3-1.7,0.8-2.2,1.5c-0.6,0.7-0.8,1.8-0.8,3.1c0,1.4,0.5,2.6,1.4,3.6
				S3071.5,5405,3073.5,5405z M3082,5395.6l-1.6-2.1c0.4-0.4,1.1-0.9,2.3-1.3c1.1-0.5,2.4-0.7,3.7-0.7h2.9v4.1H3082z"/>
			<path class="st3" d="M3093.8,5417.1v-25.4h5.1l0.4,3.2l0.5,1.9v20.2h-6V5417.1z M3099.5,5398.4l-0.4-3.5c0.3-0.5,0.8-1,1.6-1.6
				s1.8-1.1,2.9-1.5c1.1-0.4,2.3-0.6,3.5-0.6c0.7,0,1.2,0,1.7,0.1c0.5,0,0.8,0.1,1.1,0.3v4.9c-0.3-0.1-0.7-0.3-1.2-0.4
				s-1.4-0.2-2.6-0.2c-1.1,0-2,0.1-2.9,0.4c-0.9,0.3-1.6,0.6-2.2,1S3099.9,5398.1,3099.5,5398.4z"/>
			<path class="st3" d="M3122.1,5417.4c-1.7,0-3.3-0.3-4.6-0.9c-1.3-0.6-2.4-1.5-3.2-2.6c-0.8-1.1-1.2-2.4-1.2-3.9
				c0-1.6,0.5-3,1.5-4.1c1-1.1,2.3-2,4-2.7c1.1-0.4,2.3-0.7,3.6-0.9c1.3-0.2,2.6-0.4,3.9-0.5c1.3-0.1,2.5-0.1,3.6-0.1l1.2,1.4
				l-1.2,1.8c-0.7,0-1.5,0-2.4,0.1c-0.9,0.1-1.9,0.2-2.8,0.4c-0.9,0.2-1.7,0.4-2.3,0.7c-0.9,0.4-1.6,0.8-2.2,1.3s-0.9,1.3-0.9,2.3
				c0,1.3,0.4,2.2,1.2,2.9c0.8,0.7,2,1,3.6,1c0.8,0,1.6-0.1,2.5-0.3c0.8-0.2,1.6-0.5,2.2-0.7c0.6-0.3,1-0.5,1.2-0.7l1.2,1.1l-0.9,2
				c-0.8,0.6-1.9,1.2-3.3,1.7C3125.4,5417.2,3123.8,5417.4,3122.1,5417.4z M3135.8,5417.1h-5.7v-3.8h-0.3v-14c0-1.5-0.4-2.5-1.3-3
				s-2.2-0.7-3.8-0.7c-1.1,0-2.2,0.1-3.4,0.3c-1.2,0.2-2.2,0.4-3.2,0.7c-1,0.3-1.7,0.6-2.2,0.9l-1.4-3.8c0.4-0.2,1.2-0.5,2.3-0.9
				c1.1-0.4,2.5-0.7,4-1c1.5-0.3,3-0.5,4.5-0.5c2.2,0,4,0.2,5.6,0.7s2.8,1.3,3.7,2.5c0.9,1.2,1.3,2.9,1.3,5.2L3135.8,5417.1
				L3135.8,5417.1z"/>
			<path class="st3" d="M3144.2,5417.1v-25.4h5.4v2.7c0.7-0.4,1.6-0.9,2.7-1.3c1.1-0.5,2.2-0.9,3.5-1.2c1.2-0.3,2.5-0.5,3.7-0.5
				c2.1-0.1,3.7,0.2,5,0.8c1.3,0.6,2.2,1.7,2.8,3.1c0.6,1.5,0.9,3.4,0.9,5.9v15.9h-6v-15.6c0-1.4-0.1-2.5-0.4-3.4s-0.8-1.5-1.5-1.9
				s-1.8-0.6-3.2-0.5c-0.9,0-2,0.2-3.3,0.6s-2.5,0.9-3.6,1.7v19.1H3144.2L3144.2,5417.1z M3167.8,5398l-1.3-3.3
				c0.7-0.5,1.6-1,2.7-1.5c1.1-0.5,2.3-0.9,3.7-1.3c1.4-0.4,2.7-0.5,4.1-0.6c2.1,0,3.7,0.3,5,0.9s2.3,1.6,2.9,3.1
				c0.6,1.5,0.9,3.4,0.9,5.9v15.9h-6v-15.6c0-1.4-0.1-2.5-0.4-3.4c-0.3-0.9-0.7-1.5-1.5-1.9c-0.8-0.4-1.8-0.6-3.2-0.5
				c-1,0-2.1,0.2-3.4,0.7C3170,5396.8,3168.9,5397.3,3167.8,5398z"/>
			<path class="st3" d="M3194.5,5417.1v-25.4h5.4v2.7c0.7-0.4,1.6-0.9,2.7-1.3c1.1-0.5,2.2-0.9,3.5-1.2c1.2-0.3,2.5-0.5,3.7-0.5
				c2.1-0.1,3.7,0.2,5,0.8s2.2,1.7,2.8,3.1c0.6,1.5,0.9,3.4,0.9,5.9v15.9h-6v-15.6c0-1.4-0.1-2.5-0.4-3.4s-0.8-1.5-1.5-1.9
				c-0.7-0.4-1.8-0.6-3.2-0.5c-0.9,0-2,0.2-3.3,0.6c-1.3,0.4-2.5,0.9-3.6,1.7v19.1H3194.5L3194.5,5417.1z M3218.1,5398l-1.3-3.3
				c0.7-0.5,1.6-1,2.7-1.5s2.3-0.9,3.7-1.3c1.3-0.4,2.7-0.5,4.1-0.6c2.1,0,3.7,0.3,5,0.9s2.3,1.6,2.9,3.1c0.6,1.5,0.9,3.4,0.9,5.9
				v15.9h-6v-15.6c0-1.4-0.1-2.5-0.4-3.4s-0.7-1.5-1.5-1.9c-0.7-0.4-1.8-0.6-3.2-0.5c-1,0-2.1,0.2-3.4,0.7
				C3220.3,5396.9,3219.1,5397.3,3218.1,5398z"/>
			<path class="st3" d="M3255.8,5417.4c-4.1,0-7.3-1.2-9.6-3.5c-2.2-2.3-3.4-5.5-3.4-9.6c0-2.5,0.5-4.7,1.5-6.6s2.5-3.5,4.4-4.6
				c1.9-1.1,4.3-1.7,7.2-1.8c1.5,0,2.8,0.2,4.1,0.5c1.3,0.3,2.4,1,3.4,1.8c1,0.8,1.8,1.8,2.3,3c0.6,1.2,0.9,2.6,0.9,4.3
				c0,1,0,1.8,0,2.6c0,0.8-0.1,1.4-0.2,2h-20.1l0.5-3.3h14.3c0.1-1.2,0-2.4-0.2-3.5c-0.3-1.1-0.8-2-1.6-2.6c-0.8-0.7-2-1-3.6-1
				c-1.3,0-2.6,0.3-3.6,1c-1.1,0.7-1.9,1.8-2.5,3.3c-0.6,1.6-0.8,3.7-0.7,6.4c0.1,1.9,0.5,3.4,1.3,4.5c0.8,1.1,1.8,1.9,3.1,2.4
				s2.7,0.7,4.2,0.7c0.7,0,1.5-0.1,2.4-0.2c0.9-0.1,1.9-0.3,2.8-0.5c0.9-0.2,1.6-0.4,2-0.7l1.1,3c-0.6,0.5-1.5,0.9-2.6,1.2
				c-1.1,0.4-2.3,0.6-3.6,0.8C3258.3,5417.2,3257,5417.4,3255.8,5417.4z"/>
			<path class="st3" d="M3273.2,5417.1v-25.4h5.1l0.4,3.2l0.5,1.9v20.2h-6V5417.1z M3278.8,5398.4l-0.4-3.5c0.3-0.5,0.8-1,1.6-1.6
				c0.8-0.6,1.8-1.1,2.9-1.5s2.3-0.6,3.5-0.6c0.7,0,1.2,0,1.7,0.1c0.5,0,0.8,0.1,1,0.3v4.9c-0.3-0.1-0.7-0.3-1.2-0.4
				s-1.4-0.2-2.6-0.2c-1.1,0-2,0.1-2.9,0.4c-0.9,0.3-1.6,0.6-2.2,1C3279.7,5397.7,3279.2,5398.1,3278.8,5398.4z"/>
		</g>
	</g>
	<g>
		<g>
			<g>
				<polygon class="st1" points="2404.8,5394.8 2367.7,5357.8 2404.8,5320.7 2419.6,5335.6 2441.8,5335.6 2404.8,5298.5 
					2345.5,5357.8 2404.8,5417.1 2441.8,5380 2419.6,5380 				"/>
				<polygon class="st2" points="3312.5,5357.8 3304.7,5349.9 3304.7,5349.9 3304.7,5349.9 2398.6,5349.9 2390.8,5357.8 
					2398.6,5365.6 2398.6,5365.6 2398.6,5365.6 3304.7,5365.6 				"/>
			</g>
			<g>
				<path class="st3" d="M2473.7,5196.1c7.4-4.6,16.1-6.9,26-6.9c7.6,0,13.8,0.5,18.7,1.6c4.8,1,8.6,2.2,11.3,3.4s4.6,2.2,5.7,2.8
					l3.5-21.1c-2.1-0.5-4.8-1.1-8.2-2c-3.4-0.9-7.7-1.7-13-2.5c-5.3-0.8-11.8-1.2-19.6-1.2c-9.6,0-18.7,1.7-27.4,5.1
					s-16.4,8.3-23.1,14.9c-6.7,6.6-12,14.7-15.8,24.2c-3.8,9.6-5.8,20.6-5.8,33c0,15.2,3,28.4,9,39.8s14.5,20.3,25.4,26.7
					c10.9,6.4,23.7,9.5,38.4,9.5c6.4,0,11.9-0.4,16.5-1.3c4.7-0.8,8.8-1.9,12.4-3.1c3.6-1.2,6.9-2.4,9.8-3.5v-20
					c-1.8,1.5-4.7,2.9-8.7,4.3s-8.5,2.6-13.6,3.5c-5.1,0.9-10.2,1.4-15.3,1.4c-10.3,0-19.2-2.5-26.6-7.6c-7.5-5.1-13.2-12-17.1-20.9
					c-4-8.9-6-19-6-30.5c0-11.6,2-21.7,6.1-30.3C2460.6,5207.3,2466.3,5200.7,2473.7,5196.1z"/>
				<path class="st3" d="M2642.4,5216.3c-7.6-5.6-17.6-8.3-30.2-8.3c-10,0-19,2.1-27,6.3c-8,4.2-14.4,10.4-19.1,18.6
					c-4.7,8.2-7.2,18.3-7.4,30.4c-0.1,8,0.8,15.6,2.6,22.9c1.8,7.2,4.8,13.7,8.9,19.2c4.1,5.6,9.4,10,16,13.2
					c6.6,3.2,14.5,4.8,23.9,4.8c10.2,0,19.2-2.1,27.2-6.4c8-4.2,14.3-10.5,19-18.7c4.7-8.2,7.1-18.4,7.3-30.5
					c0.1-10.6-1.5-20.5-4.8-29.6C2655.4,5229.2,2650,5221.9,2642.4,5216.3z M2632.2,5296.6c-4.8,7.1-11.9,10.6-21.4,10.5
					c-6.4-0.1-11.6-2.2-15.6-6.2c-4.1-4-7.1-9.2-9-15.8c-1.9-6.5-2.9-13.7-2.9-21.5c0-12.6,2.4-22.3,7.1-29.1
					c4.8-6.8,11.8-10.1,21.2-9.9c6.4,0.1,11.7,2,15.8,5.9c4.1,3.8,7.1,8.9,9.1,15.3c1.9,6.4,2.9,13.5,2.9,21.3
					C2639.4,5279.7,2637,5289.5,2632.2,5296.6z"/>
				<path class="st3" d="M2752.3,5207.8c-5,0.1-10,0.9-15,2.4s-9.7,3.3-14,5.4s-7.9,4.1-10.7,6l-0.1-12h-21.4v112.3h23.8v-84.6
					c3-2.2,6.1-4.1,9.4-5.5s6.5-2.6,9.6-3.3c3.1-0.8,5.9-1.2,8.3-1.3c8.6-0.5,14.2,1.3,16.8,5.5c2.6,4.1,3.9,10.9,3.9,20.3v69h24
					v-70.3c0-16.5-2.7-28-8.1-34.6C2773.6,5210.6,2764.7,5207.4,2752.3,5207.8z"/>
				<path class="st3" d="M2877,5302.8c-2.3,0.7-4.7,1.2-7.3,1.7c-2.5,0.4-4.8,0.7-6.7,0.7c-3.6,0-6.3-0.5-8.1-1.4
					c-1.8-0.9-3.1-3-3.7-6.4c-0.7-3.3-1-8.6-1-15.9v-54.9h32.3v-17.2h-32.3v-25.7h-14.3c-1,3-1.9,5.7-2.7,8.2s-1.6,4.8-2.3,6.9
					c-0.7,2.1-1.3,3.8-1.9,5.3c-1.2,3.2-3.2,5.3-5.9,6.3c-2.7,1-6.6,2.2-11.7,3.6v12.5h14.9v67.3c0,7.9,1.2,14,3.5,18.2
					c2.3,4.3,5.5,7.3,9.7,8.9c4.2,1.6,8.9,2.5,14.4,2.5c4.1,0,8.3-0.5,12.5-1.4c4.2-0.9,8-2.1,11.5-3.6c3.5-1.4,6.3-2.9,8.3-4.5
					l-3.9-13.3C2881.1,5301.4,2879.3,5302.1,2877,5302.8z"/>
				<path class="st3" d="M2960.7,5207.8c-4.7,0-9.3,0.9-13.8,2.7c-4.5,1.8-8.4,4-11.8,6.5c-2.7,2.1-4.6,4-5.8,5.8l-1.5-13.2h-20.3
					v112.3h23.8v-83.8c1.4-1.2,3-2.4,5-3.7c2.6-1.7,5.5-3.1,9-4.3c3.4-1.2,7.3-1.8,11.6-1.8c4.7,0,8.1,0.3,10.2,0.9
					c2.1,0.6,3.7,1.2,4.7,1.7v-21.7c-0.9-0.5-2.3-0.9-4.2-1.1C2965.6,5207.9,2963.3,5207.8,2960.7,5207.8z"/>
				<rect x="2993.8" y="5209.6" class="st3" width="23.8" height="112.3"/>
				<rect x="2993.8" y="5180.7" class="st1" width="23.8" height="16.1"/>
				<polygon class="st3" points="3101.9,5271.9 3094.2,5299.1 3085.9,5271.9 3064,5209.4 3038.2,5209.4 3083.6,5323.5 
					3104.2,5323.5 3148.4,5209.4 3123.1,5209.4 				"/>
				<path class="st3" d="M3240.6,5218.3c-3.9-3.5-8.5-6.2-13.6-7.9c-5.1-1.7-10.6-2.6-16.4-2.4c-11.3,0.1-20.9,2.7-28.7,7.8
					c-7.8,5.1-13.6,11.9-17.6,20.5s-6,18.4-6,29.3c0,18.2,4.5,32.4,13.5,42.6s21.8,15.4,38.3,15.4c4.8,0,9.8-0.4,14.9-1.3
					s9.9-2.1,14.2-3.6c4.4-1.5,7.9-3.3,10.4-5.4l-4.6-13.3c-1.9,1.1-4.6,2.1-8.1,3c-3.6,0.9-7.2,1.7-11,2.2c-3.8,0.6-7,0.9-9.6,0.9
					c-6.2,0-11.8-1-16.9-3.1c-5-2.1-9.1-5.6-12.2-10.5c-3.1-4.9-4.9-11.6-5.3-20.1c0-0.5,0-0.9,0-1.4h70.7c0.6-2.6,0.9-5.5,0.9-8.8
					c0.1-3.3,0.1-7.1,0.1-11.4c-0.2-7.2-1.5-13.5-3.8-18.9C3247.6,5226.3,3244.5,5221.9,3240.6,5218.3z M3231.3,5256.1h-48.9
					c0.5-4.7,1.3-8.9,2.5-12.3c2.3-6.9,5.7-11.9,9.9-14.8c4.3-2.9,9.1-4.4,14.5-4.4c6.4,0,11.3,1.5,14.6,4.5c3.3,3,5.4,6.9,6.4,11.7
					C3231.4,5245.6,3231.7,5250.7,3231.3,5256.1z"/>
				<path class="st3" d="M3339.7,5208.1c-1.9-0.2-4.2-0.3-6.8-0.3c-4.7,0-9.3,0.9-13.8,2.7c-4.5,1.8-8.4,4-11.8,6.5
					c-2.7,2.1-4.6,4-5.8,5.8l-1.5-13.2h-20.3v112.3h23.8v-83.8c1.4-1.2,3-2.4,5-3.7c2.6-1.7,5.5-3.1,9-4.3c3.4-1.2,7.3-1.8,11.6-1.8
					c4.7,0,8.1,0.3,10.2,0.9c2.1,0.6,3.7,1.2,4.7,1.7v-21.7C3343,5208.6,3341.6,5208.3,3339.7,5208.1z"/>
			</g>
		</g>
	</g>
</g>
<image style="overflow:visible;" width="239" height="152" xlink:href="34B3488E.jpg"  transform="matrix(0.7217 0 0 0.7217 873.7866 1226.8119)">
</image>
</svg>
